<svg xmlns="http://www.w3.org/2000/svg" xmlns:xlink="http://www.w3.org/1999/xlink" xmlns:lucid="lucid" width="841.47"
    height="1111.32">
    <g transform="translate(-299.5332630475911 -103.07761197821657)" lucid:page-tab-id="0_0">
        <path d="M0 0h1760v1360H0z" fill="#fff" />
        <path d="M320.53 400V208a8 8 0 0 1 8-8h34.2v200z" fill="#ffa000" />
        <path
            d="M320.53 390v-4m0-8v-4m0-8v-4m0-8v-4m0-8v-4m0-8v-4m0-8v-4m0-8v-4m0-8v-4m0-8v-4m0-8v-4m0-8v-4m0-8v-4m0-8v-4m0-8v-4m0-8v-2l.1-1.25.2-.8m5.64-5.66l.8-.2 1.26-.1h1.9m7.6 0h3.8m7.6 0h3.8m7.6 0h1.9v1.96m0 7.84v3.92m0 7.85v3.92m0 7.83v3.92m0 7.85v3.92m0 7.84v3.92m0 7.85v3.92m0 7.84v3.9m0 7.86v3.92m0 7.84v3.92m0 7.85v3.9m0 7.85v3.92m0 7.85v3.92m0 7.84v3.92m0 7.85v3.92m0 7.84v3.93m0 7.84v3.93m0 7.84V400h-1.75m-7.04 0h-3.5m-7.05 0h-3.52m-7.04 0h-3.5m-7.05 0h-1.77v-2"
            stroke="#b2b2b2" stroke-width="2" fill="none" />
        <path d="M320.53 400h42.2v193.4h-42.2z" fill="#ffaf28" />
        <path
            d="M329.32 400h3.52m7.04 0h3.5m7.05 0h3.5m7.05 0h1.75v2m0 8.07v4.03m0 8.06v4.03m0 8.05v4.03m0 8.06v4.02m0 8.06v4.03m0 8.06v4.04m0 8.06v4.03m0 8.06v4m0 8.07v4.03m0 8.06v4.03m0 8.05v4.03m0 8.05v4.03m0 8.06v4.03m0 8.06v4.04m0 8.06v4.03m0 8.05v2.02h-1.75m-7.04 0h-3.5m-7.05 0h-3.52m-7.04 0h-3.5m-7.05 0h-1.77v-2.02m0-8.05v-4.03m0-8.06v-4.03m0-8.05v-4.03m0-8.06v-4.03m0-8.05v-4.03m0-8.06v-4.04m0-8.06v-4.03m0-8.06v-4m0-8.07v-4.03m0-8.06v-4.03m0-8.05v-4.03m0-8.06v-4.03m0-8.05v-4.03m0-8.06v-4.04m0-8.06v-4.03m0-8.06v-2h1.76"
            stroke="#b2b2b2" stroke-width="2" fill="none" />
        <path d="M320.53 593.4h42.2v200h-42.2z" fill="#ffbd50" />
        <path
            d="M329.32 593.4h3.52m7.04 0h3.5m7.05 0h3.5m7.05 0h1.75v1.96m0 7.84v3.92m0 7.85v3.92m0 7.83v3.92m0 7.85v3.92m0 7.84v3.92m0 7.85v3.92m0 7.84v3.9m0 7.85v3.93m0 7.84v3.92m0 7.85v3.9m0 7.85v3.92m0 7.84v3.94m0 7.84v3.92m0 7.84v3.93m0 7.84v3.93m0 7.84v3.92m0 7.84v1.96h-1.75m-7.04 0h-3.5m-7.05 0h-3.52m-7.04 0h-3.5m-7.05 0h-1.77v-1.96m0-7.85v-3.93m0-7.84v-3.92m0-7.83v-3.93m0-7.84v-3.92m0-7.84v-3.93m0-7.83v-3.92m0-7.84v-3.9m0-7.86v-3.92m0-7.84v-3.93m0-7.84v-3.9m0-7.85v-3.92m0-7.85v-3.92m0-7.84v-3.92m0-7.85v-3.92m0-7.84v-3.93m0-7.85v-3.92m0-7.84v-1.96h1.76"
            stroke="#b2b2b2" stroke-width="2" fill="none" />
        <path d="M320.53 793.4h42.2v200h-42.2z" fill="#ffcc78" />
        <path
            d="M329.32 793.4h3.52m7.04 0h3.5m7.05 0h3.5m7.05 0h1.75v1.96m0 7.84v3.92m0 7.85v3.92m0 7.83v3.92m0 7.85v3.92m0 7.84v3.92m0 7.85v3.92m0 7.84v3.9m0 7.85v3.93m0 7.84v3.92m0 7.85v3.9m0 7.85v3.92m0 7.84v3.94m0 7.84v3.92m0 7.84v3.93m0 7.84v3.93m0 7.84v3.92m0 7.84v1.96h-1.75m-7.04 0h-3.5m-7.05 0h-3.52m-7.04 0h-3.5m-7.05 0h-1.77v-1.96m0-7.85v-3.93m0-7.84v-3.92m0-7.83v-3.93m0-7.84v-3.92m0-7.84v-3.93m0-7.83v-3.92m0-7.84v-3.9m0-7.86v-3.92m0-7.84v-3.93m0-7.84v-3.9m0-7.85v-3.92m0-7.85v-3.92m0-7.84v-3.92m0-7.85v-3.92m0-7.84v-3.93m0-7.85v-3.92m0-7.84v-1.96h1.76"
            stroke="#b2b2b2" stroke-width="2" fill="none" />
        <path d="M362.73 1193.4h-34.2a8 8 0 0 1-8-8v-192h42.2z" fill="#ffd99a" />
        <path
            d="M353.23 1193.4h-3.8m-7.6 0h-3.8m-7.6 0h-1.9l-1.25-.1-.8-.2m-5.65-5.64l-.2-.8-.1-1.26v-2m0-8v-4m0-8v-4m0-8v-4m0-8v-4m0-8v-4m0-8v-4m0-8v-4m0-8v-4m0-8v-4m0-8v-4m0-8v-4m0-8v-4m0-8v-4m0-8v-4m0-8v-4m0-8v-2h1.76m7.02 0h3.52m7.04 0h3.5m7.05 0h3.5m7.05 0h1.75v1.96m0 7.84v3.92m0 7.85v3.92m0 7.83v3.92m0 7.85v3.92m0 7.84v3.92m0 7.85v3.92m0 7.84v3.9m0 7.86v3.92m0 7.84v3.92m0 7.85v3.9m0 7.85v3.92m0 7.84v3.94m0 7.84v3.92m0 7.84v3.92m0 7.85v3.93m0 7.84v3.92m0 7.84v1.96h-1.9"
            stroke="#b2b2b2" stroke-width="2" fill="none" />
        <path d="M362.73 200H1112a8 8 0 0 1 8 8v192H362.73z" fill="none" />
        <path
            d="M372.8 200h4.03m8.06 0h4.02m8.05 0H401m8.06 0h4.03m8.04 0h4.03m8.06 0h4.03m8.05 0h4.04m8.06 0h4.03m8.05 0h4.03m8.07 0h4.03m8.05 0h4.03m8.06 0h4.03m8.05 0h4.03m8.06 0h4.04m8.05 0H546m8.06 0h4.03m8.06 0h4.03m8.05 0h4.03m8.05 0h4.03m8.06 0h4.03m8.05 0h4.03m8.06 0h4.02m8.05 0h4.03m8.06 0h4.03m8.04 0h4.03m8.06 0h4.03m8.05 0h4.04m8.06 0h4.03m8.05 0h4.03m8.07 0h4.03m8.05 0h4.03m8.06 0h4.03m8.05 0h4.03m8.06 0h4.04m8.05 0h4.02m8.06 0h4.03m8.06 0h4.03m8.05 0h4.02m8.06 0h4.03m8.06 0h4.02m8.06 0h4.03m8.06 0h4.02m8.05 0h4.03m8.06 0h4.02m8.06 0h4.03m8.06 0h4.02m8.06 0h4.04m8.06 0h4.03m8.05 0h4.03m8.07 0H969m8.05 0h4.03m8.06 0h4.02m8.06 0h4.03m8.06 0h4.04m8.05 0h4.02m8.06 0h4.02m8.06 0h4.03m8.05 0h4.02m8.06 0h4.03m8.06 0h4.02m8.06 0h4.03m8.06 0h2l1.25.1.82.2m5.64 5.63l.2.82.1 1.25v2m0 8v4m0 8v4m0 8v4m0 8v4m0 8v4m0 8v4m0 8v4m0 8v4m0 8v4m0 8v4m0 8v4m0 8v4m0 8v4m0 8v4m0 8v4m0 8v2h-2m-8.02 0h-4m-8.02 0h-4m-8.02 0h-4m-8.02 0h-4m-8.02 0h-4m-8.02 0h-4m-8.02 0h-4m-8.02 0h-4m-8.02 0h-4m-8.02 0h-4m-8.02 0h-4m-8.02 0h-4m-8.02 0h-4m-8.02 0h-4m-8.02 0h-4m-8.02 0h-4m-8.02 0h-4m-8.02 0h-4m-8.02 0h-4m-8.02 0h-4m-8.02 0h-4m-8.02 0h-4m-8.02 0h-4m-8.02 0h-4m-8.02 0h-4m-8.02 0h-4m-8.02 0h-4m-8.02 0h-4m-8.02 0h-4m-8.02 0h-4m-8.02 0h-4m-8.02 0h-4m-8.02 0h-4m-8.02 0h-4m-8.02 0h-4m-8.02 0h-4m-8.02 0h-4m-8.02 0h-4m-8.02 0h-4m-8.02 0h-4m-8.02 0h-4m-8.02 0h-4m-8.02 0h-4m-8.02 0h-4m-8.02 0h-4m-8.02 0h-4m-8.02 0h-4m-8.02 0h-4m-8.02 0h-4m-8.02 0h-4m-8.02 0h-4m-8.02 0h-4m-8.02 0h-4m-8.02 0h-4m-8.02 0h-4m-8.02 0h-4m-8.02 0h-4m-8.02 0h-4m-8.02 0h-4m-8.02 0h-4m-8.02 0h-4m-8.02 0h-4m-8.02 0h-2v-1.96m0-7.84v-3.93m0-7.84v-3.92m0-7.83v-3.93m0-7.84v-3.92m0-7.84v-3.92m0-7.85v-3.92m0-7.84v-3.9m0-7.86v-3.92m0-7.84v-3.92m0-7.85v-3.9m0-7.85v-3.92m0-7.85v-3.92m0-7.84v-3.92m0-7.84v-3.93m0-7.84v-3.93m0-7.84v-3.93m0-7.84V200h2"
            stroke="#b2b2b2" stroke-width="2" fill="none" />
        <path d="M362.73 400H1120v193.4H362.73z" fill="none" />
        <path
            d="M372.75 400h4m8.02 0h4m8.02 0h4m8 0h4.02m8 0h4.02m8 0h4.02m8 0h4.02m8 0h4.02m8 0h4.02m8 0h4.02m8 0h4.02m8 0H509m8 0H521m8 0h4.02m8 0h4.02m8 0h4.02m8 0h4.02m8 0h4.02m8 0h4.02m8 0h4.02m8 0h4.02m8 0h4.02m8 0h4.02m8 0h4.02m8 0h4.02m8 0h4.02m8 0h4.02m8 0h4.02m8 0h4.02m8 0h4.02m8 0h4.02m8 0h4.02m8 0h4.02m8 0h4.02m8 0h4.02m8 0h4.02m8 0h4.02m8 0h4.02m8 0h4.02m8 0h4.02m8 0h4.02m8 0h4.02m8 0h4.02m8 0h4.02m8 0h4.02m8 0h4.02m8 0h4.02m8.02 0h4m8 0h4.02m8 0h4.02m8 0h4.02m8 0h4.02m8.02 0h4m8.02 0h4m8.02 0h4m8.02 0h4m8.02 0h4m8.02 0h4m8.02 0h4m8.02 0h4m8.02 0h4m8.02 0h4m8.02 0h2v2m0 8.07v4.03m0 8.06v4.03m0 8.05v4.03m0 8.06v4.02m0 8.06v4.03m0 8.06v4.04m0 8.06v4.03m0 8.06v4m0 8.07v4.03m0 8.06v4.03m0 8.05v4.03m0 8.05v4.03m0 8.06v4.03m0 8.06v4.04m0 8.06v4.03m0 8.05v2.02h-2m-8.02 0h-4m-8.02 0h-4m-8.02 0h-4m-8.02 0h-4m-8.02 0h-4m-8.02 0h-4m-8.02 0h-4m-8.02 0h-4m-8.02 0h-4m-8.02 0h-4m-8.02 0h-4m-8.02 0h-4m-8.02 0h-4m-8.02 0h-4m-8.02 0h-4m-8.02 0h-4m-8.02 0h-4m-8.02 0h-4m-8.02 0h-4m-8.02 0h-4m-8.02 0h-4m-8.02 0h-4m-8.02 0h-4m-8.02 0h-4m-8.02 0h-4m-8.02 0h-4m-8.02 0h-4m-8.02 0h-4m-8.02 0h-4m-8.02 0h-4m-8.02 0h-4m-8.02 0h-4m-8.02 0h-4m-8.02 0h-4m-8.02 0h-4m-8.02 0h-4m-8.02 0h-4m-8.02 0h-4m-8.02 0h-4m-8.02 0h-4m-8.02 0h-4m-8.02 0h-4m-8.02 0h-4m-8.02 0h-4m-8.02 0h-4m-8.02 0h-4m-8.02 0h-4m-8.02 0h-4m-8.02 0h-4m-8.02 0h-4m-8.02 0h-4m-8.02 0h-4m-8.02 0h-4m-8.02 0h-4m-8.02 0h-4m-8.02 0h-4m-8.02 0h-4m-8.02 0h-4m-8.02 0h-4m-8.02 0h-4m-8.02 0h-4m-8.02 0h-4m-8.02 0h-2v-2.02m0-8.05v-4.03m0-8.06v-4.03m0-8.05v-4.03m0-8.06v-4.03m0-8.05v-4.03m0-8.06v-4.04m0-8.06v-4.03m0-8.06v-4m0-8.07v-4.03m0-8.06v-4.03m0-8.05v-4.03m0-8.06v-4.03m0-8.05v-4.03m0-8.06v-4.04m0-8.06v-4.03m0-8.06v-2h2"
            stroke="#b2b2b2" stroke-width="2" fill="none" />
        <path d="M362.73 593.4H1120v200H362.73z" fill="none" />
        <path
            d="M372.75 593.4h4m8.02 0h4m8.02 0h4m8 0h4.02m8 0h4.02m8 0h4.02m8 0h4.02m8 0h4.02m8 0h4.02m8 0h4.02m8 0h4.02m8 0H509m8 0H521m8 0h4.02m8 0h4.02m8 0h4.02m8 0h4.02m8 0h4.02m8 0h4.02m8 0h4.02m8 0h4.02m8 0h4.02m8 0h4.02m8 0h4.02m8 0h4.02m8 0h4.02m8 0h4.02m8 0h4.02m8 0h4.02m8 0h4.02m8 0h4.02m8 0h4.02m8 0h4.02m8 0h4.02m8 0h4.02m8 0h4.02m8 0h4.02m8 0h4.02m8 0h4.02m8 0h4.02m8 0h4.02m8 0h4.02m8 0h4.02m8 0h4.02m8 0h4.02m8 0h4.02m8 0h4.02m8.02 0h4m8 0h4.02m8 0h4.02m8 0h4.02m8 0h4.02m8.02 0h4m8.02 0h4m8.02 0h4m8.02 0h4m8.02 0h4m8.02 0h4m8.02 0h4m8.02 0h4m8.02 0h4m8.02 0h4m8.02 0h2v1.96m0 7.84v3.92m0 7.85v3.92m0 7.83v3.92m0 7.85v3.92m0 7.84v3.92m0 7.85v3.92m0 7.84v3.9m0 7.85v3.93m0 7.84v3.92m0 7.85v3.9m0 7.85v3.92m0 7.84v3.94m0 7.84v3.92m0 7.84v3.93m0 7.84v3.93m0 7.84v3.92m0 7.84v1.96h-2m-8.02 0h-4m-8.02 0h-4m-8.02 0h-4m-8.02 0h-4m-8.02 0h-4m-8.02 0h-4m-8.02 0h-4m-8.02 0h-4m-8.02 0h-4m-8.02 0h-4m-8.02 0h-4m-8.02 0h-4m-8.02 0h-4m-8.02 0h-4m-8.02 0h-4m-8.02 0h-4m-8.02 0h-4m-8.02 0h-4m-8.02 0h-4m-8.02 0h-4m-8.02 0h-4m-8.02 0h-4m-8.02 0h-4m-8.02 0h-4m-8.02 0h-4m-8.02 0h-4m-8.02 0h-4m-8.02 0h-4m-8.02 0h-4m-8.02 0h-4m-8.02 0h-4m-8.02 0h-4m-8.02 0h-4m-8.02 0h-4m-8.02 0h-4m-8.02 0h-4m-8.02 0h-4m-8.02 0h-4m-8.02 0h-4m-8.02 0h-4m-8.02 0h-4m-8.02 0h-4m-8.02 0h-4m-8.02 0h-4m-8.02 0h-4m-8.02 0h-4m-8.02 0h-4m-8.02 0h-4m-8.02 0h-4m-8.02 0h-4m-8.02 0h-4m-8.02 0h-4m-8.02 0h-4m-8.02 0h-4m-8.02 0h-4m-8.02 0h-4m-8.02 0h-4m-8.02 0h-4m-8.02 0h-4m-8.02 0h-4m-8.02 0h-4m-8.02 0h-4m-8.02 0h-2v-1.96m0-7.85v-3.93m0-7.84v-3.92m0-7.83v-3.93m0-7.84v-3.92m0-7.84v-3.93m0-7.83v-3.92m0-7.84v-3.9m0-7.86v-3.92m0-7.84v-3.93m0-7.84v-3.9m0-7.85v-3.92m0-7.85v-3.92m0-7.84v-3.92m0-7.85v-3.92m0-7.84v-3.93m0-7.85v-3.92m0-7.84v-1.96h2"
            stroke="#b2b2b2" stroke-width="2" fill="none" />
        <path d="M362.73 793.4H1120v200H362.73z" fill="none" />
        <path
            d="M372.75 793.4h4m8.02 0h4m8.02 0h4m8 0h4.02m8 0h4.02m8 0h4.02m8 0h4.02m8 0h4.02m8 0h4.02m8 0h4.02m8 0h4.02m8 0H509m8 0H521m8 0h4.02m8 0h4.02m8 0h4.02m8 0h4.02m8 0h4.02m8 0h4.02m8 0h4.02m8 0h4.02m8 0h4.02m8 0h4.02m8 0h4.02m8 0h4.02m8 0h4.02m8 0h4.02m8 0h4.02m8 0h4.02m8 0h4.02m8 0h4.02m8 0h4.02m8 0h4.02m8 0h4.02m8 0h4.02m8 0h4.02m8 0h4.02m8 0h4.02m8 0h4.02m8 0h4.02m8 0h4.02m8 0h4.02m8 0h4.02m8 0h4.02m8 0h4.02m8 0h4.02m8 0h4.02m8.02 0h4m8 0h4.02m8 0h4.02m8 0h4.02m8 0h4.02m8.02 0h4m8.02 0h4m8.02 0h4m8.02 0h4m8.02 0h4m8.02 0h4m8.02 0h4m8.02 0h4m8.02 0h4m8.02 0h4m8.02 0h2v1.96m0 7.84v3.92m0 7.85v3.92m0 7.83v3.92m0 7.85v3.92m0 7.84v3.92m0 7.85v3.92m0 7.84v3.9m0 7.85v3.93m0 7.84v3.92m0 7.85v3.9m0 7.85v3.92m0 7.84v3.94m0 7.84v3.92m0 7.84v3.93m0 7.84v3.93m0 7.84v3.92m0 7.84v1.96h-2m-8.02 0h-4m-8.02 0h-4m-8.02 0h-4m-8.02 0h-4m-8.02 0h-4m-8.02 0h-4m-8.02 0h-4m-8.02 0h-4m-8.02 0h-4m-8.02 0h-4m-8.02 0h-4m-8.02 0h-4m-8.02 0h-4m-8.02 0h-4m-8.02 0h-4m-8.02 0h-4m-8.02 0h-4m-8.02 0h-4m-8.02 0h-4m-8.02 0h-4m-8.02 0h-4m-8.02 0h-4m-8.02 0h-4m-8.02 0h-4m-8.02 0h-4m-8.02 0h-4m-8.02 0h-4m-8.02 0h-4m-8.02 0h-4m-8.02 0h-4m-8.02 0h-4m-8.02 0h-4m-8.02 0h-4m-8.02 0h-4m-8.02 0h-4m-8.02 0h-4m-8.02 0h-4m-8.02 0h-4m-8.02 0h-4m-8.02 0h-4m-8.02 0h-4m-8.02 0h-4m-8.02 0h-4m-8.02 0h-4m-8.02 0h-4m-8.02 0h-4m-8.02 0h-4m-8.02 0h-4m-8.02 0h-4m-8.02 0h-4m-8.02 0h-4m-8.02 0h-4m-8.02 0h-4m-8.02 0h-4m-8.02 0h-4m-8.02 0h-4m-8.02 0h-4m-8.02 0h-4m-8.02 0h-4m-8.02 0h-4m-8.02 0h-4m-8.02 0h-4m-8.02 0h-2v-1.96m0-7.85v-3.93m0-7.84v-3.92m0-7.83v-3.93m0-7.84v-3.92m0-7.84v-3.93m0-7.83v-3.92m0-7.84v-3.9m0-7.86v-3.92m0-7.84v-3.93m0-7.84v-3.9m0-7.85v-3.92m0-7.85v-3.92m0-7.84v-3.92m0-7.85v-3.92m0-7.84v-3.93m0-7.85v-3.92m0-7.84v-1.96h2"
            stroke="#b2b2b2" stroke-width="2" fill="none" />
        <path d="M1120 993.4v192a8 8 0 0 1-8 8H362.73v-200z" fill="none" />
        <path
            d="M1120 1003.4v4m0 8v4m0 8v4m0 8v4m0 8v4m0 8v4m0 8v4m0 8v4m0 8v4m0 8v4m0 8v4m0 8v4m0 8v4m0 8v4m0 8v4m0 8v2l-.1 1.25-.2.8m-5.63 5.65l-.82.2-1.25.1h-2m-8.07 0h-4.03m-8.06 0h-4.02m-8.06 0h-4.03m-8.06 0h-4.02m-8.06 0h-4.04m-8.06 0h-4.02m-8.06 0h-4.03m-8.07 0h-4.02m-8.05 0h-4.03m-8.06 0h-4.02m-8.06 0h-4.03m-8.05 0h-4.03m-8.06 0h-4.02m-8.05 0h-4.03m-8.06 0h-4.03m-8.05 0h-4.02m-8.06 0h-4.03m-8.05 0h-4.04m-8.06 0h-4.03m-8.05 0h-4.03m-8.07 0h-4.03m-8.06 0h-4.02m-8.06 0h-4.03m-8.05 0h-4.03m-8.06 0h-4.04m-8.05 0h-4.02m-8.06 0h-4.03m-8.06 0h-4.03m-8.05 0h-4.03m-8.05 0h-4.03m-8.06 0h-4.03m-8.05 0h-4.03m-8.06 0h-4.02m-8.05 0h-4.03m-8.06 0H687m-8.04 0h-4.03m-8.06 0h-4.03m-8.05 0h-4.04m-8.06 0h-4.03m-8.05 0h-4.03m-8.07 0h-4.03m-8.05 0h-4.03m-8.06 0h-4.03m-8.05 0h-4.03m-8.06 0h-4.04m-8.05 0h-4.02m-8.06 0H542m-8.06 0h-4.03m-8.05 0h-4.03m-8.05 0h-4.03m-8.06 0h-4.03m-8.05 0h-4.03m-8.06 0h-4.02m-8.05 0h-4.03m-8.06 0h-4.03m-8.04 0h-4.03m-8.06 0h-4.03m-8.05 0h-4.04m-8.06 0h-4.03m-8.05 0h-4.03m-8.07 0h-4.03m-8.05 0h-2.02v-1.96m0-7.85v-3.93m0-7.84v-3.92m0-7.84v-3.92m0-7.84v-3.92m0-7.84v-3.93m0-7.83v-3.92m0-7.84v-3.9m0-7.86v-3.92m0-7.84v-3.92m0-7.85v-3.9m0-7.85v-3.92m0-7.85v-3.92m0-7.84v-3.92m0-7.85v-3.92m0-7.84v-3.93m0-7.85v-3.92m0-7.84v-1.96h2m8.02 0h4m8.02 0h4m8.02 0h4m8 0h4.02m8 0h4.02m8 0h4.02m8 0h4.02m8 0h4.02m8 0h4.02m8 0h4.02m8 0h4.02m8 0H509m8 0H521m8 0h4.02m8 0h4.02m8 0h4.02m8 0h4.02m8 0h4.02m8 0h4.02m8 0h4.02m8 0h4.02m8 0h4.02m8 0h4.02m8 0h4.02m8 0h4.02m8 0h4.02m8 0h4.02m8 0h4.02m8 0h4.02m8 0h4.02m8 0h4.02m8 0h4.02m8 0h4.02m8 0h4.02m8 0h4.02m8 0h4.02m8 0h4.02m8 0h4.02m8 0h4.02m8 0h4.02m8 0h4.02m8 0h4.02m8 0h4.02m8 0h4.02m8 0h4.02m8 0h4.02m8 0h4.02m8.02 0h4m8 0h4.02m8 0h4.02m8 0h4.02m8 0h4.02m8.02 0h4m8.02 0h4m8.02 0h4m8.02 0h4m8.02 0h4m8.02 0h4m8.02 0h4m8.02 0h4m8.02 0h4m8.02 0h4m8.02 0h2v2"
            stroke="#b2b2b2" stroke-width="2" fill="none" />
        <use xlink:href="#a"
            transform="matrix(-1.8369701987210297e-16,-1,1,-1.8369701987210297e-16,320.5332630475912,399.99999999999994) translate(66.16666666666667 27.1)" />
        <use xlink:href="#b"
            transform="matrix(-1.8369701987210297e-16,-1,1,-1.8369701987210297e-16,320.5332630475912,593.3983087312431) translate(55.41666666666666 25.5)" />
        <use xlink:href="#c"
            transform="matrix(-1.8369701987210297e-16,-1,1,-1.8369701987210297e-16,320.5332630475912,793.3983087312433) translate(83.36111111111111 25.5)" />
        <use xlink:href="#d"
            transform="matrix(-1.8369701987210297e-16,-1,1,-1.8369701987210297e-16,320.5332630475913,993.3983087312433) translate(72.30555555555556 25.5)" />
        <use xlink:href="#e"
            transform="matrix(-1.8369701987210297e-16,-1,1,-1.8369701987210297e-16,320.5332630475914,1193.3983087312433) translate(58.416666666666664 25.5)" />
        <path d="M860 560.6h240v32.8H860z" fill="none" />
        <use xlink:href="#f"
            transform="matrix(1,0,0,1,860,560.5945648817578) translate(66.32098765432099 20.055555555555557)" />
        <use xlink:href="#g"
            transform="matrix(1,0,0,1,860,560.5945648817578) translate(110.76543209876544 20.055555555555557)" />
        <use xlink:href="#h"
            transform="matrix(1,0,0,1,860,560.5945648817578) translate(174.8641975308642 20.055555555555557)" />
        <path d="M427.22 268a8 8 0 0 1 8-8h144a8 8 0 0 1 8 8v64a8 8 0 0 1-8 8h-144a8 8 0 0 1-8-8z" fill-opacity="0" />
        <path
            d="M454.42 260h19.2m9.6 0h19.2m9.6 0h19.2m9.6 0h19.2m9.6 0h9.6l1.25.1 1.23.3 1.16.47 1.07.66.95.8.82.97.65 1.07.48 1.16.3 1.22.1 1.25v10.67m0 10.66v21.34m0 10.66V332l-.1 1.25-.3 1.22-.48 1.16-.65 1.07-.82.96-.95.8-1.07.67-1.16.48-1.23.3-1.25.1h-9.6m-9.6 0h-19.2m-9.6 0h-19.2m-9.6 0h-19.2m-9.6 0h-19.2m-9.6 0h-9.6l-1.25-.1-1.22-.3-1.16-.47-1.08-.66-.95-.8-.82-.97-.65-1.07-.5-1.16-.28-1.22-.1-1.25v-10.67m0-10.66v-21.34m0-10.66V268l.1-1.25.3-1.22.48-1.16.65-1.07.82-.96.95-.8 1.07-.67 1.15-.48 1.22-.3 1.25-.1h9.6"
            stroke="#ffa000" stroke-width="2" fill="none" />
        <use xlink:href="#i"
            transform="matrix(1,0,0,1,432.0237345156185,264.8000000000001) translate(44.9320987654321 28.515972222222224)" />
        <use xlink:href="#j"
            transform="matrix(1,0,0,1,432.0237345156185,264.8000000000001) translate(48.41358024691358 49.84930555555555)" />
        <path d="M426.77 468a8 8 0 0 1 8-8h144a8 8 0 0 1 8 8v64a8 8 0 0 1-8 8h-144a8 8 0 0 1-8-8z" stroke="#000"
            stroke-opacity="0" stroke-width="2" fill="#ffaf28" />
        <use xlink:href="#k"
            transform="matrix(1,0,0,1,431.5722743484437,464.80000000000007) translate(51.35185185185186 26.297222222222224)" />
        <use xlink:href="#l"
            transform="matrix(1,0,0,1,431.5722743484437,464.80000000000007) translate(17.7962962962963 50.830555555555556)" />
        <use xlink:href="#m"
            transform="matrix(1,0,0,1,431.5722743484437,464.80000000000007) translate(61.20370370370371 50.830555555555556)" />
        <path d="M827.22 468a8 8 0 0 1 8-8h144a8 8 0 0 1 8 8v64a8 8 0 0 1-8 8h-144a8 8 0 0 1-8-8z" stroke="#000"
            stroke-opacity="0" stroke-width="2" fill="#ffaf28" />
        <use xlink:href="#n"
            transform="matrix(1,0,0,1,832.0237345156182,464.80000000000007) translate(36.043209876543216 26.297222222222224)" />
        <use xlink:href="#o"
            transform="matrix(1,0,0,1,832.0237345156182,464.80000000000007) translate(37.5 50.830555555555556)" />
        <path d="M626.77 659.2a8 8 0 0 1 8-8h144a8 8 0 0 1 8 8v64a8 8 0 0 1-8 8h-144a8 8 0 0 1-8-8z" stroke="#000"
            stroke-opacity="0" stroke-width="2" fill="#ffbd50" />
        <use xlink:href="#p"
            transform="matrix(1,0,0,1,631.5722743484436,656.0149753979408) translate(55.59876543209877 26.297222222222224)" />
        <use xlink:href="#q"
            transform="matrix(1,0,0,1,631.5722743484436,656.0149753979408) translate(38.98148148148148 50.830555555555556)" />
        <path d="M626.77 860.26a8 8 0 0 1 8-8h144a8 8 0 0 1 8 8v64a8 8 0 0 1-8 8h-144a8 8 0 0 1-8-8z" stroke="#000"
            stroke-opacity="0" stroke-width="2" fill="#ffcc78" />
        <use xlink:href="#r"
            transform="matrix(1,0,0,1,631.5722743484191,857.064975397949) translate(47.845679012345684 39.609722222222224)" />
        <path d="M826.77 860.26a8 8 0 0 1 8-8h144a8 8 0 0 1 8 8v64a8 8 0 0 1-8 8h-144a8 8 0 0 1-8-8z" stroke="#000"
            stroke-opacity="0" stroke-width="2" fill="#ffcc78" />
        <use xlink:href="#s"
            transform="matrix(1,0,0,1,831.5722743484191,857.064975397949) translate(33.59876543209876 39.609722222222224)" />
        <path d="M626.77 1067.23a8 8 0 0 1 8-8h144a8 8 0 0 1 8 8v64a8 8 0 0 1-8 8h-144a8 8 0 0 1-8-8z" stroke="#000"
            stroke-opacity="0" stroke-width="2" fill="#ffd99a" />
        <use xlink:href="#r"
            transform="matrix(1,0,0,1,631.5722743484191,1064.0316420645627) translate(47.845679012345684 39.609722222222224)" />
        <path d="M860 760h240v32.8H860z" fill="none" />
        <use xlink:href="#t" transform="matrix(1,0,0,1,860,760) translate(84.14814814814812 20.055555555555557)" />
        <use xlink:href="#h" transform="matrix(1,0,0,1,860,760) translate(174.8641975308642 20.055555555555557)" />
        <path d="M860 960h240v32.8H860z" fill="none" />
        <use xlink:href="#u" transform="matrix(1,0,0,1,860,960) translate(104.88888888888886 20.055555555555557)" />
        <use xlink:href="#v" transform="matrix(1,0,0,1,860,960) translate(184.69135802469134 20.055555555555557)" />
        <path d="M426.77 860.26a8 8 0 0 1 8-8h144a8 8 0 0 1 8 8v64a8 8 0 0 1-8 8h-144a8 8 0 0 1-8-8z" stroke="#000"
            stroke-opacity="0" stroke-width="2" fill="#ffcc78" />
        <use xlink:href="#w"
            transform="matrix(1,0,0,1,431.57227434841917,857.0649753979174) translate(45.47530864197532 39.609722222222224)" />
        <path d="M826.77 1067.23a8 8 0 0 1 8-8h144a8 8 0 0 1 8 8v64a8 8 0 0 1-8 8h-144a8 8 0 0 1-8-8z" stroke="#000"
            stroke-opacity="0" stroke-width="2" fill="#ffd99a" />
        <use xlink:href="#x"
            transform="matrix(1,0,0,1,831.5722743484191,1064.0316420645627) translate(53.796296296296305 39.609722222222224)" />
        <path d="M320.53 132.08a8 8 0 0 1 8-8h782.57a8 8 0 0 1 8 8v25.15a8 8 0 0 1-8 8H328.53a8 8 0 0 1-8-8z"
            stroke="#000" stroke-opacity="0" stroke-width="2" fill="#fff" fill-opacity="0" />
        <use xlink:href="#y"
            transform="matrix(1,0,0,1,324.5332630475911,128.07761197821657) translate(198.82913580246915 25.782777777777778)" />
        <use xlink:href="#z"
            transform="matrix(1,0,0,1,324.5332630475911,128.07761197821657) translate(304.8834567901235 25.782777777777778)" />
        <use xlink:href="#A"
            transform="matrix(1,0,0,1,324.5332630475911,128.07761197821657) translate(444.7353086419753 25.782777777777778)" />
        <path d="M492.74 163.9H952.4M492.77 163.9h-1.03M952.36 163.9h1.03" stroke="#a9afb8" stroke-width="2"
            fill="none" />
        <path d="M320.53 173.23a8 8 0 0 1 8-8H1112a8 8 0 0 1 8 8v2.85a8 8 0 0 1-8 8H328.53a8 8 0 0 1-8-8z" stroke="#000"
            stroke-opacity="0" stroke-width="2" fill="#fff" fill-opacity="0" />
        <use xlink:href="#B"
            transform="matrix(1,0,0,1,324.5332630475915,169.23283593511536) translate(308.5732201646091 14.917037037037037)" />
        <use xlink:href="#C"
            transform="matrix(1,0,0,1,324.5332630475915,169.23283593511536) translate(366.27424897119346 14.917037037037037)" />
        <use xlink:href="#D"
            transform="matrix(1,0,0,1,324.5332630475915,169.23283593511536) translate(378.72373456790126 14.917037037037037)" />
        <use xlink:href="#E"
            transform="matrix(1,0,0,1,324.5332630475915,169.23283593511536) translate(430.561183127572 14.917037037037037)" />
        <use xlink:href="#F"
            transform="matrix(1,0,0,1,324.5332630475915,169.23283593511536) translate(456.0550102880659 14.917037037037037)" />
        <path d="M706.77 731.7V835.9" stroke="#333" fill="none" />
        <path d="M707.27 731.73h-1v-.5h1z" stroke="#333" stroke-width=".05" fill="#333" />
        <path d="M706.77 850.65l-4.63-14.27h9.27z" stroke="#333" fill="#333" />
        <path d="M706.77 731.7v48.04a12 12 0 0 1-12 12h-176a12 12 0 0 0-12 12v32.14" stroke="#333" fill="none" />
        <path d="M707.27 731.73h-1v-.5h1z" stroke="#333" stroke-width=".05" fill="#333" />
        <path d="M506.77 850.65l-4.63-14.27h9.27z" stroke="#333" fill="#333" />
        <path d="M706.77 731.7v48.04a12 12 0 0 0 12 12h176a12 12 0 0 1 12 12v32.14" stroke="#333" fill="none" />
        <path d="M707.27 731.73h-1v-.5h1z" stroke="#333" stroke-width=".05" fill="#333" />
        <path d="M906.77 850.65l-4.63-14.27h9.27z" stroke="#333" fill="#333" />
        <path d="M706.77 932.76v110.1" stroke="#333" fill="none" />
        <path d="M707.27 932.78h-1v-.5h1z" stroke="#333" stroke-width=".05" fill="#333" />
        <path d="M706.77 1057.6l-4.63-14.25h9.27z" stroke="#333" fill="#333" />
        <path d="M906.77 932.76v110.1" stroke="#333" fill="none" />
        <path d="M907.27 932.78h-1v-.5h1z" stroke="#333" stroke-width=".05" fill="#333" />
        <path d="M906.77 1057.6l-4.63-14.25h9.27z" stroke="#333" fill="#333" />
        <path d="M860 367.2h240V400H860z" fill="none" />
        <use xlink:href="#G"
            transform="matrix(1,0,0,1,860,367.1962561505147) translate(137.3827160493827 20.055555555555557)" />
        <use xlink:href="#H"
            transform="matrix(1,0,0,1,860,367.1962561505147) translate(201.48148148148147 20.055555555555557)" />
        <path d="M627 468a8 8 0 0 1 8-8h144a8 8 0 0 1 8 8v64a8 8 0 0 1-8 8H635a8 8 0 0 1-8-8z" stroke="#000"
            stroke-opacity="0" stroke-width="2" fill="#ffaf28" />
        <use xlink:href="#I"
            transform="matrix(1,0,0,1,631.7980044320309,464.80000000000007) translate(35.00617283950618 26.297222222222224)" />
        <use xlink:href="#J"
            transform="matrix(1,0,0,1,631.7980044320309,464.80000000000007) translate(61.67283950617285 26.297222222222224)" />
        <use xlink:href="#K"
            transform="matrix(1,0,0,1,631.7980044320309,464.80000000000007) translate(27.697530864197528 50.830555555555556)" />
        <use xlink:href="#L"
            transform="matrix(1,0,0,1,631.7980044320309,464.80000000000007) translate(61.12962962962963 50.830555555555556)" />
        <path d="M860 1160.6h240v32.8H860z" fill="none" />
        <use xlink:href="#M"
            transform="matrix(1,0,0,1,860,1160.5945648817578) translate(100.98765432098764 20.055555555555557)" />
        <use xlink:href="#v"
            transform="matrix(1,0,0,1,860,1160.5945648817578) translate(184.69135802469137 20.055555555555557)" />
        <path d="M507.22 341.5v102.12" stroke="#333" fill="none" />
        <path d="M507.72 341.5h-1v-.5h1z" stroke="#333" stroke-width=".05" fill="#333" />
        <path d="M507.22 458.38l-4.63-14.26h9.26z" stroke="#333" fill="#333" />
        <path d="M787.27 691.2h107.95a12 12 0 0 0 12-12V556.4" stroke="#333" fill="none" />
        <path d="M787.3 691.7h-.53v-1h.5z" stroke="#333" stroke-width=".05" fill="#333" />
        <path d="M907.22 541.62l4.64 14.26h-9.27z" stroke="#333" fill="#333" />
        <path d="M907.22 540.5v138.72a12 12 0 0 1-12 12h-92.06" stroke="#333" fill="none" />
        <path d="M907.72 540.5h-1v-.5h1z" stroke="#333" stroke-width=".05" fill="#333" />
        <path d="M788.4 691.2l14.26-4.62v9.27z" stroke="#333" fill="#333" />
        <path d="M587.27 500h23.34" stroke="#333" fill="none" />
        <path d="M587.3 500.5h-.53v-1h.5z" stroke="#333" stroke-width=".05" fill="#333" />
        <path d="M625.38 500l-14.27 4.63v-9.26z" stroke="#333" fill="#333" />
        <path d="M626.5 500h-23.34" stroke="#333" fill="none" />
        <path d="M627 500.5h-.5v-1h.5z" stroke="#333" stroke-width=".05" fill="#333" />
        <path d="M588.4 500l14.26-4.63v9.26z" stroke="#333" fill="#333" />
        <path d="M706.77 650.7V556.4" stroke="#333" fill="none" />
        <path d="M707.27 651.2h-1v-.5h1z" stroke="#333" stroke-width=".05" fill="#333" />
        <path d="M706.77 541.62l4.64 14.26h-9.26z" stroke="#333" fill="#333" />
        <path d="M707 540.5v94.33" stroke="#333" fill="none" />
        <path d="M707.5 540.5h-1v-.5h1z" stroke="#333" stroke-width=".05" fill="#333" />
        <path d="M707 649.6l-4.64-14.27h9.27z" stroke="#333" fill="#333" />
        <path d="M506.77 540.5v138.72a12 12 0 0 0 12 12h91.62" stroke="#333" fill="none" />
        <path d="M507.27 540.5h-1v-.5h1z" stroke="#333" stroke-width=".05" fill="#333" />
        <path d="M625.15 691.2l-14.26 4.65v-9.27z" stroke="#333" fill="#333" />
        <path d="M626.27 691.2h-107.5a12 12 0 0 1-12-12V556.4" stroke="#333" fill="none" />
        <path d="M626.77 691.7h-.5v-1h.5z" stroke="#333" stroke-width=".05" fill="#333" />
        <path d="M506.77 541.62l4.64 14.26h-9.26z" stroke="#333" fill="#333" />
        <defs>
            <path fill="#333" d="M24 0v-248h52v208h133V0H24" id="N" />
            <path fill="#333" d="M25-224v-37h50v37H25zM25 0v-190h50V0H25" id="O" />
            <path fill="#333"
                d="M135-194c52 0 70 43 70 98 0 56-19 99-73 100-30 1-46-15-58-35L72 0H24l1-261h50v104c11-23 29-37 60-37zM114-30c31 0 40-27 40-66 0-37-7-63-39-63s-41 28-41 65c0 36 8 64 40 64"
                id="P" />
            <path fill="#333" d="M135-150c-39-12-60 13-60 57V0H25l-1-190h47c2 13-1 29 3 40 6-28 27-53 61-41v41"
                id="Q" />
            <path fill="#333"
                d="M133-34C117-15 103 5 69 4 32 3 11-16 11-54c-1-60 55-63 116-61 1-26-3-47-28-47-18 1-26 9-28 27l-52-2c7-38 36-58 82-57s74 22 75 68l1 82c-1 14 12 18 25 15v27c-30 8-71 5-69-32zm-48 3c29 0 43-24 42-57-32 0-66-3-65 30 0 17 8 27 23 27"
                id="R" />
            <path fill="#333" d="M123 10C108 53 80 86 19 72V37c35 8 53-11 59-39L3-190h52l48 148c12-52 28-100 44-148h51"
                id="S" />
            <g id="a">
                <use transform="matrix(0.05555555555555555,0,0,0.05555555555555555,0,0)" xlink:href="#N" />
                <use transform="matrix(0.05555555555555555,0,0,0.05555555555555555,12.166666666666666,0)"
                    xlink:href="#O" />
                <use transform="matrix(0.05555555555555555,0,0,0.05555555555555555,17.72222222222222,0)"
                    xlink:href="#P" />
                <use transform="matrix(0.05555555555555555,0,0,0.05555555555555555,29.888888888888886,0)"
                    xlink:href="#Q" />
                <use transform="matrix(0.05555555555555555,0,0,0.05555555555555555,37.666666666666664,0)"
                    xlink:href="#R" />
                <use transform="matrix(0.05555555555555555,0,0,0.05555555555555555,48.77777777777777,0)"
                    xlink:href="#Q" />
                <use transform="matrix(0.05555555555555555,0,0,0.05555555555555555,56.55555555555555,0)"
                    xlink:href="#S" />
            </g>
            <path fill="#333"
                d="M182-130c37 4 62 22 62 59C244 23 116-4 24 0v-248c84 5 203-23 205 63 0 31-19 50-47 55zM76-148c40-3 101 13 101-30 0-44-60-28-101-31v61zm0 110c48-3 116 14 116-37 0-48-69-32-116-35v72"
                id="T" />
            <path fill="#333"
                d="M190-63c-7 42-38 67-86 67-59 0-84-38-90-98-12-110 154-137 174-36l-49 2c-2-19-15-32-35-32-30 0-35 28-38 64-6 74 65 87 74 30"
                id="U" />
            <path fill="#333" d="M147 0L96-86 75-71V0H25v-261h50v150l67-79h53l-66 74L201 0h-54" id="V" />
            <path fill="#333"
                d="M185-48c-13 30-37 53-82 52C43 2 14-33 14-96s30-98 90-98c62 0 83 45 84 108H66c0 31 8 55 39 56 18 0 30-7 34-22zm-45-69c5-46-57-63-70-21-2 6-4 13-4 21h74"
                id="W" />
            <path fill="#333"
                d="M135-194c87-1 58 113 63 194h-50c-7-57 23-157-34-157-59 0-34 97-39 157H25l-1-190h47c2 12-1 28 3 38 12-26 28-41 61-42"
                id="X" />
            <path fill="#333"
                d="M88-194c31-1 46 15 58 34l-1-101h50l1 261h-48c-2-10 0-23-3-31C134-8 116 4 84 4 32 4 16-41 15-95c0-56 19-97 73-99zm17 164c33 0 40-30 41-66 1-37-9-64-41-64s-38 30-39 65c0 43 13 65 39 65"
                id="Y" />
            <g id="b">
                <use transform="matrix(0.05555555555555555,0,0,0.05555555555555555,0,0)" xlink:href="#T" />
                <use transform="matrix(0.05555555555555555,0,0,0.05555555555555555,14.388888888888888,0)"
                    xlink:href="#R" />
                <use transform="matrix(0.05555555555555555,0,0,0.05555555555555555,25.5,0)" xlink:href="#U" />
                <use transform="matrix(0.05555555555555555,0,0,0.05555555555555555,36.611111111111114,0)"
                    xlink:href="#V" />
                <use transform="matrix(0.05555555555555555,0,0,0.05555555555555555,47.72222222222223,0)"
                    xlink:href="#W" />
                <use transform="matrix(0.05555555555555555,0,0,0.05555555555555555,58.83333333333334,0)"
                    xlink:href="#X" />
                <use transform="matrix(0.05555555555555555,0,0,0.05555555555555555,71.00000000000001,0)"
                    xlink:href="#Y" />
            </g>
            <path fill="#333" d="M199 0l-22-63H83L61 0H9l90-248h61L250 0h-51zm-33-102l-36-108c-10 38-24 72-36 108h72"
                id="Z" />
            <path fill="#333"
                d="M24-248c93 1 206-16 204 79-1 75-69 88-152 82V0H24v-248zm52 121c47 0 100 7 100-41 0-47-54-39-100-39v80"
                id="aa" />
            <path fill="#333" d="M24 0v-248h52V0H24" id="ab" />
            <g id="c">
                <use transform="matrix(0.05555555555555555,0,0,0.05555555555555555,0,0)" xlink:href="#Z" />
                <use transform="matrix(0.05555555555555555,0,0,0.05555555555555555,14.388888888888888,0)"
                    xlink:href="#aa" />
                <use transform="matrix(0.05555555555555555,0,0,0.05555555555555555,27.72222222222222,0)"
                    xlink:href="#ab" />
            </g>
            <path fill="#333"
                d="M67-125c0 53 21 87 73 88 37 1 54-22 65-47l45 17C233-25 199 4 140 4 58 4 20-42 15-125 8-235 124-281 211-232c18 10 29 29 36 50l-46 12c-8-25-30-41-62-41-52 0-71 34-72 86"
                id="ac" />
            <path fill="#333" d="M25 0v-261h50V0H25" id="ad" />
            <path fill="#333" d="M115-3C79 11 28 4 28-45v-112H4v-33h27l15-45h31v45h36v33H77v99c-1 23 16 31 38 25v30"
                id="ae" />
            <g id="d">
                <use transform="matrix(0.05555555555555555,0,0,0.05555555555555555,0,0)" xlink:href="#ac" />
                <use transform="matrix(0.05555555555555555,0,0,0.05555555555555555,14.388888888888888,0)"
                    xlink:href="#ad" />
                <use transform="matrix(0.05555555555555555,0,0,0.05555555555555555,19.944444444444443,0)"
                    xlink:href="#O" />
                <use transform="matrix(0.05555555555555555,0,0,0.05555555555555555,25.5,0)" xlink:href="#W" />
                <use transform="matrix(0.05555555555555555,0,0,0.05555555555555555,36.611111111111114,0)"
                    xlink:href="#X" />
                <use transform="matrix(0.05555555555555555,0,0,0.05555555555555555,48.77777777777778,0)"
                    xlink:href="#ae" />
            </g>
            <path fill="#333" d="M121-226c-27-7-43 5-38 36h38v33H83V0H34v-157H6v-33h28c-9-59 32-81 87-68v32" id="af" />
            <g id="e">
                <use transform="matrix(0.05555555555555555,0,0,0.05555555555555555,0,0)" xlink:href="#ab" />
                <use transform="matrix(0.05555555555555555,0,0,0.05555555555555555,5.555555555555555,0)"
                    xlink:href="#X" />
                <use transform="matrix(0.05555555555555555,0,0,0.05555555555555555,17.72222222222222,0)"
                    xlink:href="#ae" />
                <use transform="matrix(0.05555555555555555,0,0,0.05555555555555555,24.333333333333332,0)"
                    xlink:href="#W" />
                <use transform="matrix(0.05555555555555555,0,0,0.05555555555555555,35.44444444444444,0)"
                    xlink:href="#Q" />
                <use transform="matrix(0.05555555555555555,0,0,0.05555555555555555,43.22222222222222,0)"
                    xlink:href="#af" />
                <use transform="matrix(0.05555555555555555,0,0,0.05555555555555555,49.83333333333333,0)"
                    xlink:href="#R" />
                <use transform="matrix(0.05555555555555555,0,0,0.05555555555555555,60.94444444444444,0)"
                    xlink:href="#U" />
                <use transform="matrix(0.05555555555555555,0,0,0.05555555555555555,72.05555555555556,0)"
                    xlink:href="#W" />
            </g>
            <path fill="#333" d="M30 0v-248h33v221h125V0H30" id="ag" />
            <path fill="#333"
                d="M100-194c62-1 85 37 85 99 1 63-27 99-86 99S16-35 15-95c0-66 28-99 85-99zM99-20c44 1 53-31 53-75 0-43-8-75-51-75s-53 32-53 75 10 74 51 75"
                id="ah" />
            <path fill="#333"
                d="M117-194c89-4 53 116 60 194h-32v-121c0-31-8-49-39-48C34-167 62-67 57 0H25l-1-190h30c1 10-1 24 2 32 11-22 29-35 61-36"
                id="ai" />
            <path fill="#333"
                d="M177-190C167-65 218 103 67 71c-23-6-38-20-44-43l32-5c15 47 100 32 89-28v-30C133-14 115 1 83 1 29 1 15-40 15-95c0-56 16-97 71-98 29-1 48 16 59 35 1-10 0-23 2-32h30zM94-22c36 0 50-32 50-73 0-42-14-75-50-75-39 0-46 34-46 75s6 73 46 73"
                id="aj" />
            <g id="f">
                <use transform="matrix(0.04938271604938272,0,0,0.04938271604938272,0,0)" xlink:href="#ag" />
                <use transform="matrix(0.04938271604938272,0,0,0.04938271604938272,9.876543209876544,0)"
                    xlink:href="#ah" />
                <use transform="matrix(0.04938271604938272,0,0,0.04938271604938272,19.75308641975309,0)"
                    xlink:href="#ai" />
                <use transform="matrix(0.04938271604938272,0,0,0.04938271604938272,29.629629629629633,0)"
                    xlink:href="#aj" />
            </g>
            <path fill="#333" d="M114-163C36-179 61-72 57 0H25l-1-190h30c1 12-1 29 2 39 6-27 23-49 58-41v29" id="ak" />
            <path fill="#333"
                d="M84 4C-5 8 30-112 23-190h32v120c0 31 7 50 39 49 72-2 45-101 50-169h31l1 190h-30c-1-10 1-25-2-33-11 22-28 36-60 37"
                id="al" />
            <path fill="#333" d="M24-231v-30h32v30H24zM24 0v-190h32V0H24" id="am" />
            <g id="g">
                <use transform="matrix(0.04938271604938272,0,0,0.04938271604938272,0,0)" xlink:href="#ak" />
                <use transform="matrix(0.04938271604938272,0,0,0.04938271604938272,5.8765432098765435,0)"
                    xlink:href="#al" />
                <use transform="matrix(0.04938271604938272,0,0,0.04938271604938272,15.753086419753087,0)"
                    xlink:href="#ai" />
                <use transform="matrix(0.04938271604938272,0,0,0.04938271604938272,25.629629629629633,0)"
                    xlink:href="#ai" />
                <use transform="matrix(0.04938271604938272,0,0,0.04938271604938272,35.50617283950618,0)"
                    xlink:href="#am" />
                <use transform="matrix(0.04938271604938272,0,0,0.04938271604938272,39.40740740740741,0)"
                    xlink:href="#ai" />
                <use transform="matrix(0.04938271604938272,0,0,0.04938271604938272,49.283950617283956,0)"
                    xlink:href="#aj" />
            </g>
            <path fill="#333"
                d="M135-143c-3-34-86-38-87 0 15 53 115 12 119 90S17 21 10-45l28-5c4 36 97 45 98 0-10-56-113-15-118-90-4-57 82-63 122-42 12 7 21 19 24 35"
                id="an" />
            <path fill="#333" d="M179-190L93 31C79 59 56 82 12 73V49c39 6 53-20 64-50L1-190h34L92-34l54-156h33"
                id="ao" />
            <path fill="#333" d="M59-47c-2 24 18 29 38 22v24C64 9 27 4 27-40v-127H5v-23h24l9-43h21v43h35v23H59v120"
                id="ap" />
            <path fill="#333"
                d="M100-194c63 0 86 42 84 106H49c0 40 14 67 53 68 26 1 43-12 49-29l28 8c-11 28-37 45-77 45C44 4 14-33 15-96c1-61 26-98 85-98zm52 81c6-60-76-77-97-28-3 7-6 17-6 28h103"
                id="aq" />
            <path fill="#333"
                d="M210-169c-67 3-38 105-44 169h-31v-121c0-29-5-50-35-48C34-165 62-65 56 0H25l-1-190h30c1 10-1 24 2 32 10-44 99-50 107 0 11-21 27-35 58-36 85-2 47 119 55 194h-31v-121c0-29-5-49-35-48"
                id="ar" />
            <g id="h">
                <use transform="matrix(0.04938271604938272,0,0,0.04938271604938272,0,0)" xlink:href="#an" />
                <use transform="matrix(0.04938271604938272,0,0,0.04938271604938272,8.88888888888889,0)"
                    xlink:href="#ao" />
                <use transform="matrix(0.04938271604938272,0,0,0.04938271604938272,17.77777777777778,0)"
                    xlink:href="#an" />
                <use transform="matrix(0.04938271604938272,0,0,0.04938271604938272,26.666666666666668,0)"
                    xlink:href="#ap" />
                <use transform="matrix(0.04938271604938272,0,0,0.04938271604938272,31.60493827160494,0)"
                    xlink:href="#aq" />
                <use transform="matrix(0.04938271604938272,0,0,0.04938271604938272,41.48148148148148,0)"
                    xlink:href="#ar" />
                <use transform="matrix(0.04938271604938272,0,0,0.04938271604938272,56.246913580246904,0)"
                    xlink:href="#an" />
            </g>
            <path fill="#333"
                d="M51-54c-9 22 5 41 31 30L79-1C43 14 10-4 19-52l22-115H19l5-23h22l19-43h21l-9 43h35l-4 23H73"
                id="as" />
            <path fill="#333" d="M188 0h-37l-8-164L71 0H34L18-190h31l8 164 75-164h34l8 164 74-164h31" id="at" />
            <path fill="#333" d="M50-231l6-30h32l-6 30H50zM6 0l37-190h31L37 0H6" id="au" />
            <path fill="#333"
                d="M67-158c22-48 132-52 116 29L158 0h-32l25-140c3-38-53-32-70-12C52-117 51-52 38 0H6l36-190h30"
                id="av" />
            <path fill="#333" d="M11 0l48-248h34L50-27h125l-5 27H11" id="aw" />
            <path fill="#333"
                d="M165-48c-4 18 1 34 23 27l-3 20c-29 8-62 0-52-35h-2C116-14 99 4 63 4 30 4 8-16 8-49c0-68 71-67 138-67 10-26 0-56-31-54-26 1-42 9-47 31l-32-5c8-67 160-71 144 15-5 28-9 54-15 81zM42-50c3 52 80 24 89-6 7-12 7-24 11-38-47 1-103-4-100 44"
                id="ax" />
            <path fill="#333"
                d="M68-162c25-46 127-43 121 31C183-60 169 1 98 4 69 5 53-11 43-31L36 0H5l52-261h31zm88 36c2-27-9-43-34-43-55 0-70 51-70 103 0 29 15 45 43 46 52 0 58-58 61-106"
                id="ay" />
            <g id="i">
                <use transform="matrix(0.04938271604938272,0,0,0.04938271604938272,0,0)" xlink:href="#as" />
                <use transform="matrix(0.04938271604938272,0,0,0.04938271604938272,4.938271604938272,0)"
                    xlink:href="#at" />
                <use transform="matrix(0.04938271604938272,0,0,0.04938271604938272,17.7283950617284,0)"
                    xlink:href="#au" />
                <use transform="matrix(0.04938271604938272,0,0,0.04938271604938272,21.629629629629633,0)"
                    xlink:href="#av" />
                <use transform="matrix(0.04938271604938272,0,0,0.04938271604938272,31.506172839506174,0)"
                    xlink:href="#aw" />
                <use transform="matrix(0.04938271604938272,0,0,0.04938271604938272,41.38271604938272,0)"
                    xlink:href="#ax" />
                <use transform="matrix(0.04938271604938272,0,0,0.04938271604938272,51.25925925925927,0)"
                    xlink:href="#ay" />
            </g>
            <path fill="#333" d="M66-151c12-25 30-51 66-40l-6 26C45-176 58-65 38 0H6l36-190h30" id="az" />
            <path fill="#333"
                d="M198-190L69 30C53 58 25 83-20 72c4-11-1-27 19-22 33-1 43-29 59-52L20-190h32L79-34l84-156h35"
                id="aA" />
            <g id="j">
                <use transform="matrix(0.04938271604938272,0,0,0.04938271604938272,0,0)" xlink:href="#aw" />
                <use transform="matrix(0.04938271604938272,0,0,0.04938271604938272,9.876543209876544,0)"
                    xlink:href="#au" />
                <use transform="matrix(0.04938271604938272,0,0,0.04938271604938272,13.777777777777779,0)"
                    xlink:href="#ay" />
                <use transform="matrix(0.04938271604938272,0,0,0.04938271604938272,23.654320987654323,0)"
                    xlink:href="#az" />
                <use transform="matrix(0.04938271604938272,0,0,0.04938271604938272,29.530864197530867,0)"
                    xlink:href="#ax" />
                <use transform="matrix(0.04938271604938272,0,0,0.04938271604938272,39.40740740740741,0)"
                    xlink:href="#az" />
                <use transform="matrix(0.04938271604938272,0,0,0.04938271604938272,45.283950617283956,0)"
                    xlink:href="#aA" />
            </g>
            <path fill="#333"
                d="M222 0l43-216c-8 16-17 34-26 49L143 0h-22L81-216 41 0H11l48-248h42l38 208 116-208h45L252 0h-30"
                id="aB" />
            <path fill="#333"
                d="M30-147c31-64 166-65 159 27C183-49 158 1 86 4 9 8 1-88 30-147zM88-20c53 0 68-48 68-100 0-31-11-51-44-50-52 1-68 46-68 97 0 32 13 53 44 53"
                id="aC" />
            <path fill="#333"
                d="M133-28C103 26-5 8 13-77c13-62 24-115 90-117 29-1 46 15 56 35l19-102h32L160 0h-30zM45-64c-2 27 10 43 35 43 54-1 69-50 69-103 0-29-15-46-42-46-53-1-58 58-62 106"
                id="aD" />
            <path fill="#333" d="M6 0l50-261h32L37 0H6" id="aE" />
            <g id="k">
                <use transform="matrix(0.04938271604938272,0,0,0.04938271604938272,0,0)" xlink:href="#aB" />
                <use transform="matrix(0.04938271604938272,0,0,0.04938271604938272,14.765432098765434,0)"
                    xlink:href="#aC" />
                <use transform="matrix(0.04938271604938272,0,0,0.04938271604938272,24.641975308641978,0)"
                    xlink:href="#aD" />
                <use transform="matrix(0.04938271604938272,0,0,0.04938271604938272,34.51851851851852,0)"
                    xlink:href="#ax" />
                <use transform="matrix(0.04938271604938272,0,0,0.04938271604938272,44.39506172839506,0)"
                    xlink:href="#aE" />
            </g>
            <path fill="#333"
                d="M52-101C46-14 166-7 216-51l9-45h-74l6-28h105l-18 87C217-12 181 4 130 4 60 4 18-31 18-101c0-106 78-167 188-146 30 6 48 27 59 54l-34 9c-10-26-31-41-67-40-75 1-107 50-112 123"
                id="aF" />
            <path fill="#333"
                d="M238-179c0 84-86 86-175 82L45 0H11l48-248c82 0 179-12 179 69zm-34 1c0-53-64-42-116-43l-19 98c63 0 135 9 135-55"
                id="aG" />
            <path fill="#333"
                d="M62-99C39-31 123 0 170-40s38-139 58-208h34C234-144 253 4 115 4 49 4 18-43 31-112l26-136h34"
                id="aH" />
            <g id="l">
                <use transform="matrix(0.04938271604938272,0,0,0.04938271604938272,0,0)" xlink:href="#aF" />
                <use transform="matrix(0.04938271604938272,0,0,0.04938271604938272,13.827160493827162,0)"
                    xlink:href="#aG" />
                <use transform="matrix(0.04938271604938272,0,0,0.04938271604938272,25.679012345679016,0)"
                    xlink:href="#aH" />
            </g>
            <path fill="#333"
                d="M125-24c46 0 70-25 89-51l25 16C214-24 183 4 123 4 8 4-5-146 60-208c32-50 158-61 191-5 5 7 9 14 11 22l-32 10c-9-28-33-43-69-43-74 0-108 51-108 125 0 46 24 75 72 75"
                id="aI" />
            <path fill="#333"
                d="M248-111c6-24 9-61-24-58-72 9-57 108-77 169h-31l26-142c3-37-50-30-64-10C52-115 50-51 37 0H6l36-190h30c-1 10-6 24-4 32 13-43 101-52 105 5 13-22 29-41 61-41 90 0 28 129 23 194h-31"
                id="aJ" />
            <path fill="#333"
                d="M67-162c32-53 139-36 121 50C175-51 163 2 97 4 68 4 52-11 42-31 38 6 28 39 22 75H-9l50-265h29c-1 10 0 20-3 28zm89 36c0-26-10-43-35-43-54 0-67 50-69 103-1 29 14 45 42 46 53 0 62-58 62-106"
                id="aK" />
            <path fill="#333"
                d="M67 3c-93-2-31-127-26-193h32L48-50c-3 39 53 32 70 12 30-34 30-101 43-152h32L157 0h-30c1-10 6-24 4-33-14 20-29 37-64 36"
                id="aL" />
            <path fill="#333"
                d="M111-194c62-3 86 47 72 106H45c-7 38 6 69 45 68 27-1 43-14 53-32l24 11C152-15 129 4 87 4 38 3 12-23 12-71c0-70 32-119 99-123zm44 81c14-66-71-72-95-28-4 8-8 17-11 28h106"
                id="aM" />
            <g id="m">
                <use transform="matrix(0.04938271604938272,0,0,0.04938271604938272,0,0)" xlink:href="#aI" />
                <use transform="matrix(0.04938271604938272,0,0,0.04938271604938272,12.790123456790125,0)"
                    xlink:href="#aC" />
                <use transform="matrix(0.04938271604938272,0,0,0.04938271604938272,22.66666666666667,0)"
                    xlink:href="#aJ" />
                <use transform="matrix(0.04938271604938272,0,0,0.04938271604938272,37.4320987654321,0)"
                    xlink:href="#aK" />
                <use transform="matrix(0.04938271604938272,0,0,0.04938271604938272,47.308641975308646,0)"
                    xlink:href="#aL" />
                <use transform="matrix(0.04938271604938272,0,0,0.04938271604938272,57.18518518518519,0)"
                    xlink:href="#as" />
                <use transform="matrix(0.04938271604938272,0,0,0.04938271604938272,62.12345679012346,0)"
                    xlink:href="#aM" />
            </g>
            <path fill="#333"
                d="M240 0l2-218c-23 76-54 145-80 218h-23L58-218 59 0H30v-248h44l77 211c21-75 51-140 76-211h43V0h-30"
                id="aN" />
            <path fill="#333"
                d="M30-248c118-7 216 8 213 122C240-48 200 0 122 0H30v-248zM63-27c89 8 146-16 146-99s-60-101-146-95v194"
                id="aO" />
            <path fill="#333"
                d="M160-131c35 5 61 23 61 61C221 17 115-2 30 0v-248c76 3 177-17 177 60 0 33-19 50-47 57zm-97-11c50-1 110 9 110-42 0-47-63-36-110-37v79zm0 115c55-2 124 14 124-45 0-56-70-42-124-44v89"
                id="aP" />
            <g id="n">
                <use transform="matrix(0.04938271604938272,0,0,0.04938271604938272,0,0)" xlink:href="#aN" />
                <use transform="matrix(0.04938271604938272,0,0,0.04938271604938272,14.765432098765434,0)"
                    xlink:href="#ah" />
                <use transform="matrix(0.04938271604938272,0,0,0.04938271604938272,24.641975308641978,0)"
                    xlink:href="#ai" />
                <use transform="matrix(0.04938271604938272,0,0,0.04938271604938272,34.51851851851852,0)"
                    xlink:href="#aj" />
                <use transform="matrix(0.04938271604938272,0,0,0.04938271604938272,44.39506172839506,0)"
                    xlink:href="#ah" />
                <use transform="matrix(0.04938271604938272,0,0,0.04938271604938272,54.27160493827161,0)"
                    xlink:href="#aO" />
                <use transform="matrix(0.04938271604938272,0,0,0.04938271604938272,67.06172839506173,0)"
                    xlink:href="#aP" />
            </g>
            <path fill="#333"
                d="M141-36C126-15 110 5 73 4 37 3 15-17 15-53c-1-64 63-63 125-63 3-35-9-54-41-54-24 1-41 7-42 31l-33-3c5-37 33-52 76-52 45 0 72 20 72 64v82c-1 20 7 32 28 27v20c-31 9-61-2-59-35zM48-53c0 20 12 33 32 33 41-3 63-29 60-74-43 2-92-5-92 41"
                id="aQ" />
            <path fill="#333"
                d="M115-194c53 0 69 39 70 98 0 66-23 100-70 100C84 3 66-7 56-30L54 0H23l1-261h32v101c10-23 28-34 59-34zm-8 174c40 0 45-34 45-75 0-40-5-75-45-74-42 0-51 32-51 76 0 43 10 73 51 73"
                id="aR" />
            <g id="o">
                <use transform="matrix(0.04938271604938272,0,0,0.04938271604938272,0,0)" xlink:href="#aO" />
                <use transform="matrix(0.04938271604938272,0,0,0.04938271604938272,12.790123456790125,0)"
                    xlink:href="#aQ" />
                <use transform="matrix(0.04938271604938272,0,0,0.04938271604938272,22.66666666666667,0)"
                    xlink:href="#ap" />
                <use transform="matrix(0.04938271604938272,0,0,0.04938271604938272,27.604938271604947,0)"
                    xlink:href="#aQ" />
                <use transform="matrix(0.04938271604938272,0,0,0.04938271604938272,37.48148148148149,0)"
                    xlink:href="#aR" />
                <use transform="matrix(0.04938271604938272,0,0,0.04938271604938272,47.35802469135803,0)"
                    xlink:href="#aQ" />
                <use transform="matrix(0.04938271604938272,0,0,0.04938271604938272,57.23456790123457,0)"
                    xlink:href="#an" />
                <use transform="matrix(0.04938271604938272,0,0,0.04938271604938272,66.12345679012347,0)"
                    xlink:href="#aq" />
            </g>
            <path fill="#333" d="M205 0l-28-72H64L36 0H1l101-248h38L239 0h-34zm-38-99l-47-123c-12 45-31 82-46 123h93"
                id="aS" />
            <path fill="#333" d="M266 0h-40l-56-210L115 0H75L2-248h35L96-30l15-64 43-154h32l59 218 59-218h35" id="aT" />
            <path fill="#333"
                d="M185-189c-5-48-123-54-124 2 14 75 158 14 163 119 3 78-121 87-175 55-17-10-28-26-33-46l33-7c5 56 141 63 141-1 0-78-155-14-162-118-5-82 145-84 179-34 5 7 8 16 11 25"
                id="aU" />
            <g id="p">
                <use transform="matrix(0.04938271604938272,0,0,0.04938271604938272,0,0)" xlink:href="#aS" />
                <use transform="matrix(0.04938271604938272,0,0,0.04938271604938272,11.209876543209878,0)"
                    xlink:href="#aT" />
                <use transform="matrix(0.04938271604938272,0,0,0.04938271604938272,27.95061728395062,0)"
                    xlink:href="#aU" />
            </g>
            <path fill="#333"
                d="M85-194c31 0 48 13 60 33l-1-100h32l1 261h-30c-2-10 0-23-3-31C134-8 116 4 85 4 32 4 16-35 15-94c0-66 23-100 70-100zm9 24c-40 0-46 34-46 75 0 40 6 74 45 74 42 0 51-32 51-76 0-42-9-74-50-73"
                id="aV" />
            <g id="q">
                <use transform="matrix(0.04938271604938272,0,0,0.04938271604938272,0,0)" xlink:href="#ag" />
                <use transform="matrix(0.04938271604938272,0,0,0.04938271604938272,9.876543209876544,0)"
                    xlink:href="#aQ" />
                <use transform="matrix(0.04938271604938272,0,0,0.04938271604938272,19.75308641975309,0)"
                    xlink:href="#ar" />
                <use transform="matrix(0.04938271604938272,0,0,0.04938271604938272,34.51851851851852,0)"
                    xlink:href="#aR" />
                <use transform="matrix(0.04938271604938272,0,0,0.04938271604938272,44.39506172839506,0)"
                    xlink:href="#aV" />
                <use transform="matrix(0.04938271604938272,0,0,0.04938271604938272,54.27160493827161,0)"
                    xlink:href="#aQ" />
                <use transform="matrix(0.04938271604938272,0,0,0.04938271604938272,64.14814814814815,0)"
                    xlink:href="#an" />
            </g>
            <path fill="#333"
                d="M30-248c87 1 191-15 191 75 0 78-77 80-158 76V0H30v-248zm33 125c57 0 124 11 124-50 0-59-68-47-124-48v98"
                id="aW" />
            <path fill="#333"
                d="M106-169C34-169 62-67 57 0H25v-261h32l-1 103c12-21 28-36 61-36 89 0 53 116 60 194h-32v-121c2-32-8-49-39-48"
                id="aX" />
            <g id="r">
                <use transform="matrix(0.04938271604938272,0,0,0.04938271604938272,0,0)" xlink:href="#aW" />
                <use transform="matrix(0.04938271604938272,0,0,0.04938271604938272,11.851851851851853,0)"
                    xlink:href="#ao" />
                <use transform="matrix(0.04938271604938272,0,0,0.04938271604938272,20.74074074074074,0)"
                    xlink:href="#ap" />
                <use transform="matrix(0.04938271604938272,0,0,0.04938271604938272,25.679012345679016,0)"
                    xlink:href="#aX" />
                <use transform="matrix(0.04938271604938272,0,0,0.04938271604938272,35.55555555555556,0)"
                    xlink:href="#ah" />
                <use transform="matrix(0.04938271604938272,0,0,0.04938271604938272,45.4320987654321,0)"
                    xlink:href="#ai" />
            </g>
            <path fill="#333" d="M127-220V0H93v-220H8v-28h204v28h-85" id="aY" />
            <path fill="#333"
                d="M115-194c55 1 70 41 70 98S169 2 115 4C84 4 66-9 55-30l1 105H24l-1-265h31l2 30c10-21 28-34 59-34zm-8 174c40 0 45-34 45-75s-6-73-45-74c-42 0-51 32-51 76 0 43 10 73 51 73"
                id="aZ" />
            <path fill="#333"
                d="M96-169c-40 0-48 33-48 73s9 75 48 75c24 0 41-14 43-38l32 2c-6 37-31 61-74 61-59 0-76-41-82-99-10-93 101-131 147-64 4 7 5 14 7 22l-32 3c-4-21-16-35-41-35"
                id="ba" />
            <g id="s">
                <use transform="matrix(0.04938271604938272,0,0,0.04938271604938272,0,0)" xlink:href="#aY" />
                <use transform="matrix(0.04938271604938272,0,0,0.04938271604938272,9.82716049382716,0)"
                    xlink:href="#ao" />
                <use transform="matrix(0.04938271604938272,0,0,0.04938271604938272,18.71604938271605,0)"
                    xlink:href="#aZ" />
                <use transform="matrix(0.04938271604938272,0,0,0.04938271604938272,28.592592592592595,0)"
                    xlink:href="#aq" />
                <use transform="matrix(0.04938271604938272,0,0,0.04938271604938272,38.46913580246914,0)"
                    xlink:href="#aU" />
                <use transform="matrix(0.04938271604938272,0,0,0.04938271604938272,50.320987654320994,0)"
                    xlink:href="#ba" />
                <use transform="matrix(0.04938271604938272,0,0,0.04938271604938272,59.209876543209894,0)"
                    xlink:href="#ak" />
                <use transform="matrix(0.04938271604938272,0,0,0.04938271604938272,65.08641975308643,0)"
                    xlink:href="#am" />
                <use transform="matrix(0.04938271604938272,0,0,0.04938271604938272,68.98765432098767,0)"
                    xlink:href="#aZ" />
                <use transform="matrix(0.04938271604938272,0,0,0.04938271604938272,78.86419753086422,0)"
                    xlink:href="#ap" />
            </g>
            <path fill="#333" d="M30 0v-248h187v28H63v79h144v27H63v87h162V0H30" id="bb" />
            <path fill="#333" d="M24 0v-261h32V0H24" id="bc" />
            <g id="t">
                <use transform="matrix(0.04938271604938272,0,0,0.04938271604938272,0,0)" xlink:href="#bb" />
                <use transform="matrix(0.04938271604938272,0,0,0.04938271604938272,11.851851851851853,0)"
                    xlink:href="#aZ" />
                <use transform="matrix(0.04938271604938272,0,0,0.04938271604938272,21.7283950617284,0)"
                    xlink:href="#aX" />
                <use transform="matrix(0.04938271604938272,0,0,0.04938271604938272,31.60493827160494,0)"
                    xlink:href="#aq" />
                <use transform="matrix(0.04938271604938272,0,0,0.04938271604938272,41.48148148148149,0)"
                    xlink:href="#ar" />
                <use transform="matrix(0.04938271604938272,0,0,0.04938271604938272,56.24691358024693,0)"
                    xlink:href="#aq" />
                <use transform="matrix(0.04938271604938272,0,0,0.04938271604938272,66.12345679012347,0)"
                    xlink:href="#ak" />
                <use transform="matrix(0.04938271604938272,0,0,0.04938271604938272,72.00000000000001,0)"
                    xlink:href="#aQ" />
                <use transform="matrix(0.04938271604938272,0,0,0.04938271604938272,81.87654320987656,0)"
                    xlink:href="#bc" />
            </g>
            <path fill="#333" d="M206 0h-36l-40-164L89 0H53L-1-190h32L70-26l43-164h34l41 164 42-164h31" id="bd" />
            <path fill="#333" d="M16-82v-28h88v28H16" id="be" />
            <path fill="#333" d="M108 0H70L1-190h34L89-25l56-165h34" id="bf" />
            <g id="u">
                <use transform="matrix(0.04938271604938272,0,0,0.04938271604938272,0,0)" xlink:href="#ag" />
                <use transform="matrix(0.04938271604938272,0,0,0.04938271604938272,9.876543209876544,0)"
                    xlink:href="#ah" />
                <use transform="matrix(0.04938271604938272,0,0,0.04938271604938272,19.75308641975309,0)"
                    xlink:href="#bd" />
                <use transform="matrix(0.04938271604938272,0,0,0.04938271604938272,32.543209876543216,0)"
                    xlink:href="#be" />
                <use transform="matrix(0.04938271604938272,0,0,0.04938271604938272,38.41975308641976,0)"
                    xlink:href="#bc" />
                <use transform="matrix(0.04938271604938272,0,0,0.04938271604938272,42.320987654320994,0)"
                    xlink:href="#aq" />
                <use transform="matrix(0.04938271604938272,0,0,0.04938271604938272,52.19753086419754,0)"
                    xlink:href="#bf" />
                <use transform="matrix(0.04938271604938272,0,0,0.04938271604938272,61.08641975308644,0)"
                    xlink:href="#aq" />
                <use transform="matrix(0.04938271604938272,0,0,0.04938271604938272,70.96296296296298,0)"
                    xlink:href="#bc" />
            </g>
            <g id="v">
                <use transform="matrix(0.04938271604938272,0,0,0.04938271604938272,0,0)" xlink:href="#aQ" />
                <use transform="matrix(0.04938271604938272,0,0,0.04938271604938272,9.876543209876544,0)"
                    xlink:href="#ba" />
                <use transform="matrix(0.04938271604938272,0,0,0.04938271604938272,18.765432098765434,0)"
                    xlink:href="#ba" />
                <use transform="matrix(0.04938271604938272,0,0,0.04938271604938272,27.654320987654323,0)"
                    xlink:href="#aq" />
                <use transform="matrix(0.04938271604938272,0,0,0.04938271604938272,37.53086419753087,0)"
                    xlink:href="#an" />
                <use transform="matrix(0.04938271604938272,0,0,0.04938271604938272,46.41975308641976,0)"
                    xlink:href="#an" />
            </g>
            <path fill="#333" d="M179 0l23-115H67L45 0H11l48-248h34L72-143h135l21-105h32L212 0h-33" id="bg" />
            <path fill="#333" d="M151-220L108 0H75l42-220H32l6-28h203l-5 28h-85" id="bh" />
            <g id="w">
                <use transform="matrix(0.04938271604938272,0,0,0.04938271604938272,0,0)" xlink:href="#bg" />
                <use transform="matrix(0.04938271604938272,0,0,0.04938271604938272,12.790123456790125,0)"
                    xlink:href="#bh" />
                <use transform="matrix(0.04938271604938272,0,0,0.04938271604938272,23.60493827160494,0)"
                    xlink:href="#bh" />
                <use transform="matrix(0.04938271604938272,0,0,0.04938271604938272,34.41975308641975,0)"
                    xlink:href="#aG" />
                <use transform="matrix(0.04938271604938272,0,0,0.04938271604938272,46.27160493827161,0)"
                    xlink:href="#au" />
                <use transform="matrix(0.04938271604938272,0,0,0.04938271604938272,50.17283950617284,0)"
                    xlink:href="#aM" />
            </g>
            <path fill="#333" d="M141 0L90-78 38 0H4l68-98-65-92h35l48 74 47-74h35l-64 92 68 98h-35" id="bi" />
            <g id="x">
                <use transform="matrix(0.04938271604938272,0,0,0.04938271604938272,0,0)" xlink:href="#bb" />
                <use transform="matrix(0.04938271604938272,0,0,0.04938271604938272,11.851851851851853,0)"
                    xlink:href="#bi" />
                <use transform="matrix(0.04938271604938272,0,0,0.04938271604938272,20.74074074074074,0)"
                    xlink:href="#ba" />
                <use transform="matrix(0.04938271604938272,0,0,0.04938271604938272,29.629629629629633,0)"
                    xlink:href="#aq" />
                <use transform="matrix(0.04938271604938272,0,0,0.04938271604938272,39.50617283950618,0)"
                    xlink:href="#bc" />
            </g>
            <path fill="#a9afb8" d="M115-3C79 11 28 4 28-45v-112H4v-33h27l15-45h31v45h36v33H77v99c-1 23 16 31 38 25v30"
                id="bj" />
            <path fill="#a9afb8" d="M231 0h-52l-39-155L100 0H48L-1-190h46L77-45c9-52 24-97 36-145h53l37 145 32-145h46"
                id="bk" />
            <path fill="#a9afb8" d="M25-224v-37h50v37H25zM25 0v-190h50V0H25" id="bl" />
            <path fill="#a9afb8"
                d="M135-194c87-1 58 113 63 194h-50c-7-57 23-157-34-157-59 0-34 97-39 157H25l-1-190h47c2 12-1 28 3 38 12-26 28-41 61-42"
                id="bm" />
            <path fill="#a9afb8" d="M24 0v-248h52v208h133V0H24" id="bn" />
            <path fill="#a9afb8"
                d="M133-34C117-15 103 5 69 4 32 3 11-16 11-54c-1-60 55-63 116-61 1-26-3-47-28-47-18 1-26 9-28 27l-52-2c7-38 36-58 82-57s74 22 75 68l1 82c-1 14 12 18 25 15v27c-30 8-71 5-69-32zm-48 3c29 0 43-24 42-57-32 0-66-3-65 30 0 17 8 27 23 27"
                id="bo" />
            <path fill="#a9afb8"
                d="M135-194c52 0 70 43 70 98 0 56-19 99-73 100-30 1-46-15-58-35L72 0H24l1-261h50v104c11-23 29-37 60-37zM114-30c31 0 40-27 40-66 0-37-7-63-39-63s-41 28-41 65c0 36 8 64 40 64"
                id="bp" />
            <g id="y">
                <use transform="matrix(0.0728395061728395,0,0,0.0728395061728395,0,0)" xlink:href="#bj" />
                <use transform="matrix(0.0728395061728395,0,0,0.0728395061728395,8.667901234567902,0)"
                    xlink:href="#bk" />
                <use transform="matrix(0.0728395061728395,0,0,0.0728395061728395,29.062962962962963,0)"
                    xlink:href="#bl" />
                <use transform="matrix(0.0728395061728395,0,0,0.0728395061728395,36.34691358024691,0)"
                    xlink:href="#bm" />
                <use transform="matrix(0.0728395061728395,0,0,0.0728395061728395,52.29876543209876,0)"
                    xlink:href="#bn" />
                <use transform="matrix(0.0728395061728395,0,0,0.0728395061728395,68.25061728395062,0)"
                    xlink:href="#bo" />
                <use transform="matrix(0.0728395061728395,0,0,0.0728395061728395,82.81851851851852,0)"
                    xlink:href="#bp" />
            </g>
            <path fill="#a9afb8"
                d="M169-182c-1-43-94-46-97-3 18 66 151 10 154 114 3 95-165 93-204 36-6-8-10-19-12-30l50-8c3 46 112 56 116 5-17-69-150-10-154-114-4-87 153-88 188-35 5 8 8 18 10 28"
                id="bq" />
            <path fill="#a9afb8"
                d="M185-48c-13 30-37 53-82 52C43 2 14-33 14-96s30-98 90-98c62 0 83 45 84 108H66c0 31 8 55 39 56 18 0 30-7 34-22zm-45-69c5-46-57-63-70-21-2 6-4 13-4 21h74"
                id="br" />
            <path fill="#a9afb8" d="M135-150c-39-12-60 13-60 57V0H25l-1-190h47c2 13-1 29 3 40 6-28 27-53 61-41v41"
                id="bs" />
            <path fill="#a9afb8" d="M128 0H69L1-190h53L99-40l48-150h52" id="bt" />
            <path fill="#a9afb8" d="M25 0v-261h50V0H25" id="bu" />
            <path fill="#a9afb8"
                d="M137-138c1-29-70-34-71-4 15 46 118 7 119 86 1 83-164 76-172 9l43-7c4 19 20 25 44 25 33 8 57-30 24-41C81-84 22-81 20-136c-2-80 154-74 161-7"
                id="bv" />
            <g id="z">
                <use transform="matrix(0.0728395061728395,0,0,0.0728395061728395,0,0)" xlink:href="#bq" />
                <use transform="matrix(0.0728395061728395,0,0,0.0728395061728395,17.48148148148148,0)"
                    xlink:href="#br" />
                <use transform="matrix(0.0728395061728395,0,0,0.0728395061728395,32.04938271604938,0)"
                    xlink:href="#bs" />
                <use transform="matrix(0.0728395061728395,0,0,0.0728395061728395,42.24691358024691,0)"
                    xlink:href="#bt" />
                <use transform="matrix(0.0728395061728395,0,0,0.0728395061728395,56.8148148148148,0)"
                    xlink:href="#br" />
                <use transform="matrix(0.0728395061728395,0,0,0.0728395061728395,71.38271604938271,0)"
                    xlink:href="#bs" />
                <use transform="matrix(0.0728395061728395,0,0,0.0728395061728395,81.58024691358024,0)"
                    xlink:href="#bu" />
                <use transform="matrix(0.0728395061728395,0,0,0.0728395061728395,88.86419753086419,0)"
                    xlink:href="#br" />
                <use transform="matrix(0.0728395061728395,0,0,0.0728395061728395,103.43209876543209,0)"
                    xlink:href="#bv" />
                <use transform="matrix(0.0728395061728395,0,0,0.0728395061728395,117.99999999999999,0)"
                    xlink:href="#bv" />
            </g>
            <path fill="#a9afb8" d="M199 0l-22-63H83L61 0H9l90-248h61L250 0h-51zm-33-102l-36-108c-10 38-24 72-36 108h72"
                id="bw" />
            <path fill="#a9afb8"
                d="M190-63c-7 42-38 67-86 67-59 0-84-38-90-98-12-110 154-137 174-36l-49 2c-2-19-15-32-35-32-30 0-35 28-38 64-6 74 65 87 74 30"
                id="bx" />
            <path fill="#a9afb8"
                d="M114-157C55-157 80-60 75 0H25v-261h50l-1 109c12-26 28-41 61-42 86-1 58 113 63 194h-50c-7-57 23-157-34-157"
                id="by" />
            <path fill="#a9afb8"
                d="M85 4C-2 5 27-109 22-190h50c7 57-23 150 33 157 60-5 35-97 40-157h50l1 190h-47c-2-12 1-28-3-38-12 25-28 42-61 42"
                id="bz" />
            <g id="A">
                <use transform="matrix(0.0728395061728395,0,0,0.0728395061728395,0,0)" xlink:href="#bw" />
                <use transform="matrix(0.0728395061728395,0,0,0.0728395061728395,18.86543209876543,0)"
                    xlink:href="#bs" />
                <use transform="matrix(0.0728395061728395,0,0,0.0728395061728395,29.062962962962963,0)"
                    xlink:href="#bx" />
                <use transform="matrix(0.0728395061728395,0,0,0.0728395061728395,43.63086419753086,0)"
                    xlink:href="#by" />
                <use transform="matrix(0.0728395061728395,0,0,0.0728395061728395,59.582716049382704,0)"
                    xlink:href="#bl" />
                <use transform="matrix(0.0728395061728395,0,0,0.0728395061728395,66.86666666666666,0)"
                    xlink:href="#bj" />
                <use transform="matrix(0.0728395061728395,0,0,0.0728395061728395,75.53456790123457,0)"
                    xlink:href="#br" />
                <use transform="matrix(0.0728395061728395,0,0,0.0728395061728395,90.10246913580247,0)"
                    xlink:href="#bx" />
                <use transform="matrix(0.0728395061728395,0,0,0.0728395061728395,104.67037037037036,0)"
                    xlink:href="#bj" />
                <use transform="matrix(0.0728395061728395,0,0,0.0728395061728395,113.33827160493827,0)"
                    xlink:href="#bz" />
                <use transform="matrix(0.0728395061728395,0,0,0.0728395061728395,129.29012345679013,0)"
                    xlink:href="#bs" />
                <use transform="matrix(0.0728395061728395,0,0,0.0728395061728395,139.48765432098764,0)"
                    xlink:href="#br" />
            </g>
            <path fill="#a9afb8"
                d="M85-194c31 0 48 13 60 33l-1-100h32l1 261h-30c-2-10 0-23-3-31C134-8 116 4 85 4 32 4 16-35 15-94c0-66 23-100 70-100zm9 24c-40 0-46 34-46 75 0 40 6 74 45 74 42 0 51-32 51-76 0-42-9-74-50-73"
                id="bA" />
            <path fill="#a9afb8" d="M24-231v-30h32v30H24zM24 0v-190h32V0H24" id="bB" />
            <path fill="#a9afb8"
                d="M177-190C167-65 218 103 67 71c-23-6-38-20-44-43l32-5c15 47 100 32 89-28v-30C133-14 115 1 83 1 29 1 15-40 15-95c0-56 16-97 71-98 29-1 48 16 59 35 1-10 0-23 2-32h30zM94-22c36 0 50-32 50-73 0-42-14-75-50-75-39 0-46 34-46 75s6 73 46 73"
                id="bC" />
            <path fill="#a9afb8" d="M30 0v-248h33v221h125V0H30" id="bD" />
            <path fill="#a9afb8"
                d="M141-36C126-15 110 5 73 4 37 3 15-17 15-53c-1-64 63-63 125-63 3-35-9-54-41-54-24 1-41 7-42 31l-33-3c5-37 33-52 76-52 45 0 72 20 72 64v82c-1 20 7 32 28 27v20c-31 9-61-2-59-35zM48-53c0 20 12 33 32 33 41-3 63-29 60-74-43 2-92-5-92 41"
                id="bE" />
            <path fill="#a9afb8"
                d="M115-194c53 0 69 39 70 98 0 66-23 100-70 100C84 3 66-7 56-30L54 0H23l1-261h32v101c10-23 28-34 59-34zm-8 174c40 0 45-34 45-75 0-40-5-75-45-74-42 0-51 32-51 76 0 43 10 73 51 73"
                id="bF" />
            <g id="B">
                <use transform="matrix(0.04248971193415638,0,0,0.04248971193415638,0,0)" xlink:href="#bA" />
                <use transform="matrix(0.04248971193415638,0,0,0.04248971193415638,8.497942386831275,0)"
                    xlink:href="#bB" />
                <use transform="matrix(0.04248971193415638,0,0,0.04248971193415638,11.854629629629626,0)"
                    xlink:href="#bC" />
                <use transform="matrix(0.04248971193415638,0,0,0.04248971193415638,20.352572016460904,0)"
                    xlink:href="#bB" />
                <use transform="matrix(0.04248971193415638,0,0,0.04248971193415638,23.70925925925926,0)"
                    xlink:href="#bD" />
                <use transform="matrix(0.04248971193415638,0,0,0.04248971193415638,32.20720164609053,0)"
                    xlink:href="#bE" />
                <use transform="matrix(0.04248971193415638,0,0,0.04248971193415638,40.70514403292181,0)"
                    xlink:href="#bF" />
            </g>
            <path fill="#a9afb8" d="M32 76v-337h29V76H32" id="bG" />
            <use transform="matrix(0.04248971193415638,0,0,0.04248971193415638,0,0)" xlink:href="#bG" id="C" />
            <path fill="#a9afb8" d="M205 0l-28-72H64L36 0H1l101-248h38L239 0h-34zm-38-99l-47-123c-12 45-31 82-46 123h93"
                id="bH" />
            <path fill="#a9afb8"
                d="M84 4C-5 8 30-112 23-190h32v120c0 31 7 50 39 49 72-2 45-101 50-169h31l1 190h-30c-1-10 1-25-2-33-11 22-28 36-60 37"
                id="bI" />
            <path fill="#a9afb8"
                d="M135-143c-3-34-86-38-87 0 15 53 115 12 119 90S17 21 10-45l28-5c4 36 97 45 98 0-10-56-113-15-118-90-4-57 82-63 122-42 12 7 21 19 24 35"
                id="bJ" />
            <path fill="#a9afb8" d="M59-47c-2 24 18 29 38 22v24C64 9 27 4 27-40v-127H5v-23h24l9-43h21v43h35v23H59v120"
                id="bK" />
            <g id="D">
                <use transform="matrix(0.04248971193415638,0,0,0.04248971193415638,0,0)" xlink:href="#bH" />
                <use transform="matrix(0.04248971193415638,0,0,0.04248971193415638,10.19753086419753,0)"
                    xlink:href="#bI" />
                <use transform="matrix(0.04248971193415638,0,0,0.04248971193415638,18.695473251028805,0)"
                    xlink:href="#bC" />
                <use transform="matrix(0.04248971193415638,0,0,0.04248971193415638,27.193415637860078,0)"
                    xlink:href="#bI" />
                <use transform="matrix(0.04248971193415638,0,0,0.04248971193415638,35.691358024691354,0)"
                    xlink:href="#bJ" />
                <use transform="matrix(0.04248971193415638,0,0,0.04248971193415638,43.3395061728395,0)"
                    xlink:href="#bK" />
            </g>
            <path fill="#a9afb8"
                d="M126-127c33 6 58 20 58 59 0 88-139 92-164 29-3-8-5-16-6-25l32-3c6 27 21 44 54 44 32 0 52-15 52-46 0-38-36-46-79-43v-28c39 1 72-4 72-42 0-27-17-43-46-43-28 0-47 15-49 41l-32-3c6-42 35-63 81-64 48-1 79 21 79 65 0 36-21 52-52 59"
                id="bL" />
            <path fill="#a9afb8" d="M27 0v-27h64v-190l-56 39v-29l58-41h29v221h61V0H27" id="bM" />
            <path fill="#a9afb8" d="M68-38c1 34 0 65-14 84H32c9-13 17-26 17-46H33v-38h35" id="bN" />
            <g id="E">
                <use transform="matrix(0.04248971193415638,0,0,0.04248971193415638,0,0)" xlink:href="#bL" />
                <use transform="matrix(0.04248971193415638,0,0,0.04248971193415638,8.497942386831275,0)"
                    xlink:href="#bM" />
                <use transform="matrix(0.04248971193415638,0,0,0.04248971193415638,16.99588477366255,0)"
                    xlink:href="#bN" />
            </g>
            <path fill="#a9afb8"
                d="M101-251c82-7 93 87 43 132L82-64C71-53 59-42 53-27h129V0H18c2-99 128-94 128-182 0-28-16-43-45-43s-46 15-49 41l-32-3c6-41 34-60 81-64"
                id="bO" />
            <path fill="#a9afb8"
                d="M101-251c68 0 85 55 85 127S166 4 100 4C33 4 14-52 14-124c0-73 17-127 87-127zm-1 229c47 0 54-49 54-102s-4-102-53-102c-51 0-55 48-55 102 0 53 5 102 54 102"
                id="bP" />
            <g id="F">
                <use transform="matrix(0.04248971193415638,0,0,0.04248971193415638,0,0)" xlink:href="#bO" />
                <use transform="matrix(0.04248971193415638,0,0,0.04248971193415638,8.497942386831275,0)"
                    xlink:href="#bP" />
                <use transform="matrix(0.04248971193415638,0,0,0.04248971193415638,16.99588477366255,0)"
                    xlink:href="#bO" />
                <use transform="matrix(0.04248971193415638,0,0,0.04248971193415638,25.493827160493822,0)"
                    xlink:href="#bL" />
            </g>
            <path fill="#333" d="M33 0v-248h34V0H33" id="bQ" />
            <g id="G">
                <use transform="matrix(0.04938271604938272,0,0,0.04938271604938272,0,0)" xlink:href="#bQ" />
                <use transform="matrix(0.04938271604938272,0,0,0.04938271604938272,4.938271604938272,0)"
                    xlink:href="#ai" />
                <use transform="matrix(0.04938271604938272,0,0,0.04938271604938272,14.814814814814817,0)"
                    xlink:href="#ap" />
                <use transform="matrix(0.04938271604938272,0,0,0.04938271604938272,19.75308641975309,0)"
                    xlink:href="#aq" />
                <use transform="matrix(0.04938271604938272,0,0,0.04938271604938272,29.629629629629633,0)"
                    xlink:href="#ak" />
                <use transform="matrix(0.04938271604938272,0,0,0.04938271604938272,35.50617283950618,0)"
                    xlink:href="#ai" />
                <use transform="matrix(0.04938271604938272,0,0,0.04938271604938272,45.38271604938272,0)"
                    xlink:href="#aQ" />
                <use transform="matrix(0.04938271604938272,0,0,0.04938271604938272,55.25925925925927,0)"
                    xlink:href="#bc" />
            </g>
            <g id="H">
                <use transform="matrix(0.04938271604938272,0,0,0.04938271604938272,0,0)" xlink:href="#ba" />
                <use transform="matrix(0.04938271604938272,0,0,0.04938271604938272,8.88888888888889,0)"
                    xlink:href="#ah" />
                <use transform="matrix(0.04938271604938272,0,0,0.04938271604938272,18.765432098765434,0)"
                    xlink:href="#aV" />
                <use transform="matrix(0.04938271604938272,0,0,0.04938271604938272,28.641975308641978,0)"
                    xlink:href="#aq" />
            </g>
            <path fill="#333"
                d="M126-127c33 6 58 20 58 59 0 88-139 92-164 29-3-8-5-16-6-25l32-3c6 27 21 44 54 44 32 0 52-15 52-46 0-38-36-46-79-43v-28c39 1 72-4 72-42 0-27-17-43-46-43-28 0-47 15-49 41l-32-3c6-42 35-63 81-64 48-1 79 21 79 65 0 36-21 52-52 59"
                id="bR" />
            <g id="I">
                <use transform="matrix(0.04938271604938272,0,0,0.04938271604938272,0,0)" xlink:href="#aU" />
                <use transform="matrix(0.04938271604938272,0,0,0.04938271604938272,11.851851851851853,0)"
                    xlink:href="#bR" />
            </g>
            <path fill="#333" d="M143 0L79-87 56-68V0H24v-261h32v163l83-92h37l-77 82L181 0h-38" id="bS" />
            <g id="J">
                <use transform="matrix(0.04938271604938272,0,0,0.04938271604938272,0,0)" xlink:href="#aP" />
                <use transform="matrix(0.04938271604938272,0,0,0.04938271604938272,11.851851851851853,0)"
                    xlink:href="#al" />
                <use transform="matrix(0.04938271604938272,0,0,0.04938271604938272,21.7283950617284,0)"
                    xlink:href="#ba" />
                <use transform="matrix(0.04938271604938272,0,0,0.04938271604938272,30.617283950617285,0)"
                    xlink:href="#bS" />
                <use transform="matrix(0.04938271604938272,0,0,0.04938271604938272,39.50617283950618,0)"
                    xlink:href="#aq" />
                <use transform="matrix(0.04938271604938272,0,0,0.04938271604938272,49.38271604938272,0)"
                    xlink:href="#ap" />
            </g>
            <path fill="#333" d="M63-220v92h138v28H63V0H30v-248h175v28H63" id="bT" />
            <g id="K">
                <use transform="matrix(0.04938271604938272,0,0,0.04938271604938272,0,0)" xlink:href="#bT" />
                <use transform="matrix(0.04938271604938272,0,0,0.04938271604938272,10.814814814814815,0)"
                    xlink:href="#am" />
                <use transform="matrix(0.04938271604938272,0,0,0.04938271604938272,14.71604938271605,0)"
                    xlink:href="#bc" />
                <use transform="matrix(0.04938271604938272,0,0,0.04938271604938272,18.617283950617285,0)"
                    xlink:href="#aq" />
            </g>
            <g id="L">
                <use transform="matrix(0.04938271604938272,0,0,0.04938271604938272,0,0)" xlink:href="#aU" />
                <use transform="matrix(0.04938271604938272,0,0,0.04938271604938272,11.851851851851853,0)"
                    xlink:href="#ap" />
                <use transform="matrix(0.04938271604938272,0,0,0.04938271604938272,16.790123456790127,0)"
                    xlink:href="#ah" />
                <use transform="matrix(0.04938271604938272,0,0,0.04938271604938272,26.666666666666668,0)"
                    xlink:href="#ak" />
                <use transform="matrix(0.04938271604938272,0,0,0.04938271604938272,32.543209876543216,0)"
                    xlink:href="#aQ" />
                <use transform="matrix(0.04938271604938272,0,0,0.04938271604938272,42.41975308641976,0)"
                    xlink:href="#aj" />
                <use transform="matrix(0.04938271604938272,0,0,0.04938271604938272,52.2962962962963,0)"
                    xlink:href="#aq" />
            </g>
            <path fill="#333" d="M197 0v-115H63V0H30v-248h33v105h134v-105h34V0h-34" id="bU" />
            <g id="M">
                <use transform="matrix(0.04938271604938272,0,0,0.04938271604938272,0,0)" xlink:href="#bU" />
                <use transform="matrix(0.04938271604938272,0,0,0.04938271604938272,12.790123456790125,0)"
                    xlink:href="#am" />
                <use transform="matrix(0.04938271604938272,0,0,0.04938271604938272,16.69135802469136,0)"
                    xlink:href="#aj" />
                <use transform="matrix(0.04938271604938272,0,0,0.04938271604938272,26.567901234567902,0)"
                    xlink:href="#aX" />
                <use transform="matrix(0.04938271604938272,0,0,0.04938271604938272,36.44444444444445,0)"
                    xlink:href="#be" />
                <use transform="matrix(0.04938271604938272,0,0,0.04938271604938272,42.320987654320994,0)"
                    xlink:href="#bc" />
                <use transform="matrix(0.04938271604938272,0,0,0.04938271604938272,46.22222222222223,0)"
                    xlink:href="#aq" />
                <use transform="matrix(0.04938271604938272,0,0,0.04938271604938272,56.09876543209877,0)"
                    xlink:href="#bf" />
                <use transform="matrix(0.04938271604938272,0,0,0.04938271604938272,64.98765432098766,0)"
                    xlink:href="#aq" />
                <use transform="matrix(0.04938271604938272,0,0,0.04938271604938272,74.8641975308642,0)"
                    xlink:href="#bc" />
            </g>
        </defs>
    </g>
</svg>
